<svg version="1.2" xmlns="http://www.w3.org/2000/svg" viewBox="0 0 750 500" width="525" height="500">
	<defs>
		<clipPath clipPathUnits="userSpaceOnUse" id="cp1">
			<path d="m675.51 216.11c-0.35 4.73-4.3 8.37-9.04 8.32-6-0.06-13.8-0.18-18.3-0.41-16.41-0.84-32.7-1.8-49.07-3.28-6.35-0.57-51.32-3.07-67.8-3.89-3.44-0.17-6.19-2.91-6.37-6.35l-3.39-62.56c25.6 0 57.83 1.04 83.45 1.75 21.26 0.6 71.25 3.01 71.25 3.01 0.95 16.63-1.87 32.85-0.63 50.03 0.36 5 0.21 9.07-0.1 13.38z"/>
		</clipPath>
	</defs>
	<style>
		.s0 { fill: #f2cf9d } 
		.s1 { fill: #b8905c } 
		.s2 { fill: #d4b183 } 
		.s3 { fill: none;stroke: #b59870;stroke-miterlimit:10;stroke-width: 2 } 
		.s4 { fill: none;stroke: #e3be8c;stroke-miterlimit:10;stroke-width: 2 } 
		.s5 { fill: none;stroke: #b59870;stroke-miterlimit:10;stroke-width: 2;stroke-dasharray: 105.2136,10.5214 } 
		.s6 { fill: none;stroke: #b59870;stroke-miterlimit:10;stroke-width: 2;stroke-dasharray: 105.245,10.5245 } 
		.s7 { fill: none;stroke: #b59870;stroke-miterlimit:10;stroke-width: 2;stroke-dasharray: 105.2197,10.522 } 
		.s8 { fill: none;stroke: #e3be8c;stroke-miterlimit:10;stroke-width: 2;stroke-dasharray: 69.1482,6.9148 } 
		.s9 { fill: none;stroke: #e3be8c;stroke-miterlimit:10;stroke-width: 2;stroke-dasharray: 100,10 } 
		.s10 { fill: none;stroke: #a17e50;stroke-miterlimit:10;stroke-width: 2 } 
		.s11 { opacity: .52;fill: #b8905c } 
		.s12 { fill: #f7b448 } 
		.s13 { fill: #f7a04a } 
		.s14 { fill: #f79743 } 
		.s15 { fill: #f7a465 } 
		.s16 { opacity: .2;fill: #f7b448 } 
		.s17 { fill: #f7b25e } 
		.s18 { fill: #f7c383 } 
		.s19 { fill: #ffffff } 
		.s20 { fill: #faf4e6 } 
		.s21 { fill: #f5eddd } 
		.s22 { fill: #f5efe4 } 
		.s23 { fill: #f5cd76 } 
		.s24 { fill: #edc46d } 
		.s25 { fill: #ffdb9c } 
		.s26 { fill: #ffe2ab } 
		.s27 { fill: #ffeed1 } 
		.s28 { fill: #fff1d6 } 
		.s29 { fill: #f7d06d } 
		.s30 { fill: #f7bf60 } 
		.s31 { fill: #f7e1aa } 
		.s32 { fill: #f7eacb } 
		.s33 { fill: #f7a248 } 
		.s34 { fill: #f7bc4d } 
		.s35 { fill: #fce097 } 
		.s36 { fill: #fcdc88 } 
		.s37 { fill: #f7f0de } 
		.s38 { fill: #f5e5c2 } 
	</style>
	<g id="OBJECTS">
		<g>
			<path class="s0" d="m193.42 301.88c-6.72 5.25-22.37-2.4-31.09-2.8-17.89-0.82-35.55-1.64-53.4-0.71-12.16 0.63-57.78 4.99-61.66-9.02-2.58-9.31-3.79-25.41-3.79-25.41 12.51-4.62 26.79-6.51 40.1-5.33 21.02 1.85 41.89 1.2 62.78 3.33 17.43 1.78 42.65 4.62 56.33 16.06-5.6 5.08-12.89 18.1-9.27 23.88z"/>
			<path class="s0" d="m117.71 355.67c0 0-1 13.38 0.53 23.77 0.9 6.1 6.79 11.42 12.93 11.83 49.67 3.26 198.04-1.87 235.6-0.56 54.46 1.89 105.93 0.96 160.37 1.35 23.56 0.17 57.06 2.24 82.49-1.72 5.66-0.88 10.69-4.07 13.8-8.87l86.95-134.17c1.58-2.44 2.38-5.3 2.29-8.2l-0.96-32.39c-8.97-4.35-26.03 9.9-35.46 11.27-38.84 5.6-77.41 13.23-115.86 21.47-42.13 9.03-84.6 16.33-127.19 22.91-51.45 7.94-101.77 23.62-153.06 32.83-42.65 7.66-79.91 21.46-119.16 39.29-13.65 6.2-34.14 8.4-43.27 21.19z"/>
		</g>
		<g>
			<path class="s1" d="m113.63 344.44c0 0-1.01 13.38 0.52 23.77 0.9 6.09 6.79 11.42 12.94 11.82 49.66 3.27 198.03-1.86 235.59-0.56 54.47 1.9 105.93 0.96 160.37 1.36 23.57 0.17 57.07 2.24 82.5-1.72 5.65-0.88 10.68-4.07 13.8-8.88l86.95-134.16c1.58-2.44 2.38-5.3 2.29-8.2l-0.96-32.39c-8.98-4.35-26.03 9.9-35.46 11.26-38.84 5.6-77.42 13.24-115.86 21.47-42.14 9.03-84.61 16.34-127.19 22.91-51.45 7.94-101.77 23.62-153.06 32.83-42.66 7.66-79.92 21.47-119.16 39.3-13.65 6.2-34.15 8.4-43.27 21.19z"/>
			<path class="s1" d="m186.27 289.63c-6.72 5.25-22.37-2.41-31.09-2.81-17.89-0.82-35.55-1.63-53.4-0.7-12.16 0.63-57.78 4.99-61.66-9.02-2.58-9.31-3.78-25.41-3.78-25.41 12.5-4.63 26.78-6.51 40.09-5.34 21.02 1.85 41.89 1.2 62.78 3.34 17.43 1.78 42.65 4.61 56.33 16.05-5.6 5.08-12.89 18.1-9.27 23.89z"/>
			<path class="s2" d="m706.68 203.52l-97.17 142.77c-1.91 2.82-5.09 4.51-8.49 4.5-28.69-0.02-162.44-0.09-194.52 0.6-46.65 1.01-214.87 0.77-282.44 2.9-9.26 0.29-14.12-10.82-7.67-17.46 21.42-22.02 44.86-49.31 64.45-66.09 0 0-43.97-7.97-81.25-8.09-25.42-0.08-51.05 4.87-60.77-7.02-8.55-10.45 15.59-24.96 29.99-26.28 12.7-1.17 26.04 1.31 37.87 5.07 15 4.78 87.14 0.52 99.98-4.47 0 0 22.07-26.11 38-40.23 5.23-4.63 11.96-7.18 18.94-7.12 9.84 0.09 24.38 0.22 28.87 0.3 27.89 0.45 55.81-0.72 83.69 0.04 46.48 1.25 257.13 3.76 322.14 4.51 8.21 0.1 13 9.29 8.38 16.07z"/>
			<path class="s1" d="m77.6 247.17c0 2.63-3.99 4.76-8.9 4.76-4.92 0-8.9-2.13-8.9-4.76 0-2.63 3.98-4.76 8.9-4.76 4.91 0 8.9 2.13 8.9 4.76z"/>
			<path fill-rule="evenodd" class="s3" d="m268.18 191l412.22 5.41"/>
			<path fill-rule="evenodd" class="s3" d="m238.55 228.67l412.23 5.41"/>
			<path fill-rule="evenodd" class="s4" d="m515.42 207.08l143.32 1.08"/>
			<path fill-rule="evenodd" class="s3" d="m255.57 201.44l143.32 1.09"/>
			<path fill-rule="evenodd" class="s4" d="m216.1 265.6l430.51 5.65"/>
			<path fill-rule="evenodd" class="s3" d="m242.83 212.88l126.64 0.08"/>
			<path fill-rule="evenodd" class="s4" d="m161.99 303.57l387.23 5.66"/>
			<g>
				<g>
					<path fill-rule="evenodd" class="s3" d="m129.16 339.81l50 0.22"/>
					<path fill-rule="evenodd" class="s5" d="m189.68 340.07l110.47 0.49"/>
					<path fill-rule="evenodd" class="s3" d="m305.41 340.59l50 0.22"/>
				</g>
			</g>
			<g>
				<g>
					<path fill-rule="evenodd" class="s3" d="m182.09 322.61l50 0.22"/>
					<path fill-rule="evenodd" class="s5" d="m242.61 322.88l110.47 0.49"/>
					<path fill-rule="evenodd" class="s3" d="m358.34 323.39l50 0.22"/>
				</g>
			</g>
			<g>
				<g>
					<path fill-rule="evenodd" class="s3" d="m392.03 287.43l49.99 0.94"/>
					<path fill-rule="evenodd" class="s6" d="m452.55 288.56l110.48 2.08"/>
					<path fill-rule="evenodd" class="s3" d="m568.29 290.74l50 0.94"/>
				</g>
			</g>
			<g>
				<g>
					<path fill-rule="evenodd" class="s3" d="m417.61 217.19l50 0.46"/>
					<path fill-rule="evenodd" class="s7" d="m478.13 217.74l110.48 1.02"/>
					<path fill-rule="evenodd" class="s3" d="m593.87 218.81l50 0.46"/>
				</g>
			</g>
			<g>
				<g>
					<path fill-rule="evenodd" class="s4" d="m386.62 339.55l50 0.57"/>
					<path fill-rule="evenodd" class="s8" d="m443.53 340.2l72.6 0.83"/>
					<path fill-rule="evenodd" class="s4" d="m519.59 341.07l50 0.56"/>
				</g>
			</g>
			<g>
				<g>
					<path fill-rule="evenodd" class="s3" d="m208.8 244.97l50 0.46"/>
					<path fill-rule="evenodd" class="s7" d="m269.32 245.53l110.48 1.01"/>
					<path fill-rule="evenodd" class="s3" d="m385.06 246.59l50 0.46"/>
				</g>
			</g>
			<g>
				<g>
					<path fill-rule="evenodd" class="s4" d="m479.66 244.97l49.99 0.77"/>
					<path fill-rule="evenodd" class="s4" d="m564.63 246.28l49.99 0.77"/>
				</g>
			</g>
			<path fill-rule="evenodd" class="s3" d="m188.06 284.85l134.96 2.09"/>
			<path fill-rule="evenodd" class="s9" d="m88.5 242.9l70.03 2.08"/>
			<path fill-rule="evenodd" class="s3" d="m139.21 254.4l44.12 2.08"/>
			<path fill-rule="evenodd" class="s3" d="m105.6 255.48l21.39-0.08"/>
			<path fill-rule="evenodd" class="s3" d="m169.91 240.86l28.96-2.25"/>
			<path class="s10" d="m43.25 272.84c12.49 14.49 37.11 10.59 54.74 8.86 19.04-1.88 38.68-1.12 57.99-1.12"/>
			<path class="s10" d="m85.25 275.01c9.26-3.61 19.09-4.85 29.8-4.33 13.2 0.65 31.67 5.11 44.25 3.22"/>
			<path class="s10" d="m48.77 270.59c4.5 3.19 10.68 3.44 15.48 4.42-1.74 0 10.36 0 11.05 0"/>
			<path fill-rule="evenodd" class="s10" d="m125.03 361.22h390.39"/>
			<path fill-rule="evenodd" class="s10" d="m192.5 368.91h390.38"/>
			<path fill-rule="evenodd" class="s10" d="m330.08 375.56h184.76"/>
			<path fill-rule="evenodd" class="s10" d="m617.99 361.22l82.87-129.27"/>
			<path fill-rule="evenodd" class="s10" d="m628.37 327.3l74.5-109.73"/>
			<path fill-rule="evenodd" class="s10" d="m123.38 375.56h184.76"/>
		</g>
		<g>
			<path class="s11" d="m671.21 222.06c-1.33-2.56-19.38-1.97-23.7-2.48-15.06-1.82-28.93-5.15-44.24-4.83-4.62 0.1-9.07-0.58-13.66-0.44-5.44 0.18-11.01 3.41-16.48 3.02-6.39-0.46-12.17-4.69-18.77-4.5-4.53 3.4-15.3 11.14-20 16.41-5.19 5.83-12.6 9.9-17.41 15.85 0.74-0.53 0.69-1.32 1.28-2.28 6.34 4.63 14.39 7.25 22.08 8.61 13.21 2.34 80.5 6.45 84.16 3.54 7-5.57 36.15-23.54 46.74-32.9z"/>
			<g>
				<path class="s12" d="m675.61 214.67c-0.36 5.53-4.95 9.81-10.49 9.75-5.78-0.07-12.78-0.19-16.95-0.4-16.41-0.84-32.7-1.8-49.07-3.28-6.28-0.57-50.4-3.02-67.29-3.86-3.73-0.19-6.71-3.16-6.91-6.89l-3.36-62.05c25.32-3.76 57.83 1.04 83.45 1.75 21.26 0.6 71.25 3.01 71.25 3.01 0.95 16.63-1.87 32.85-0.63 50.03 0.32 4.44 0.24 8.15 0 11.94z"/>
				<path class="s13" d="m522.08 147.56c15.44-11.03 31.68-20.6 48.63-29.28 2.47-1.27 5.34-1.48 7.98-0.64 20.67 6.58 88.18 32.59 97.41 34.94 0 0-42.89 0.68-71.11-1.3-14.91-1.05-72.86-6.11-82.83-3.53-0.12 0.03-0.18-0.12-0.08-0.19z"/>
				<path class="s14" d="m571.32 138.29c-8.22-5.48-20 2.05-29.2-3.99-6.81 4.19-13.5 8.59-20.04 13.26-0.1 0.07-0.04 0.22 0.08 0.19 6.43-1.66 32.79-0.81 54.71 0.29 0.13-3.81-1.35-7.35-5.55-9.75z"/>
				<path class="s14" d="m620.91 132.72c-3.24 2.43-5.46 4.56-1.99 7.16 10.13 5.06 23.48 5.61 30.58 11.94 15.05 0.51 26.6 0.76 26.6 0.76-5.41-1.38-30.88-10.9-55.19-19.86z"/>
				<path class="s15" d="m614.52 130.36c-14.75-5.42-28.34-10.34-35.82-12.72-2.65-0.84-5.54-0.62-8.02 0.66q-12.02 6.14-23.54 12.96c22.02-4.62 44.72-4.17 67.38-0.9z"/>
				<g>
					<g id="Clip-Path" clip-path="url(#cp1)">
						<g style="opacity: .73">
							<path fill-rule="evenodd" class="s14" d="m626.58 239.22c-8.14 0-14.72-6.58-14.72-14.72 0-8.14 6.58-14.72 14.72-14.72 8.14 0 14.72 6.58 14.72 14.72 0 8.14-6.58 14.72-14.72 14.72z"/>
							<path fill-rule="evenodd" class="s14" d="m644.7 166.7c-7.92 1.88-15.84-3-17.73-10.92-1.88-7.91 3-15.84 10.92-17.72 7.92-1.88 15.84 3 17.73 10.92 1.88 7.92-3 15.84-10.92 17.72z"/>
							<path fill-rule="evenodd" class="s14" d="m605.69 201.61c-5.33 1.26-10.65-2.04-11.9-7.37-1.26-5.33 2.04-10.65 7.37-11.9 5.33-1.25 10.65 2.04 11.9 7.37 1.25 5.33-2.04 10.65-7.37 11.9z"/>
							<path fill-rule="evenodd" class="s14" d="m545.76 178.54c-7.66 1.61-15.16-3.28-16.77-10.95-1.61-7.66 3.28-15.16 10.94-16.77 7.67-1.61 15.16 3.28 16.78 10.95 1.61 7.66-3.28 15.16-10.95 16.77z"/>
							<path fill-rule="evenodd" class="s14" d="m674.4 183.16c-4.88 4.87-12.76 4.87-17.63 0-4.87-4.87-4.87-12.75 0-17.63 4.87-4.87 12.75-4.87 17.63 0 4.87 4.88 4.87 12.76 0 17.63z"/>
							<path fill-rule="evenodd" class="s14" d="m661.17 217.97c-4.45 0-8.04-3.59-8.04-8.04 0-4.45 3.59-8.05 8.04-8.05 4.45 0 8.04 3.6 8.04 8.05 0 4.45-3.59 8.04-8.04 8.04z"/>
							<path class="s14" d="m598.82 162.37c0-3.69-2.99-6.69-6.68-6.69-3.69 0-6.68 3-6.68 6.69 0 3.69 2.99 6.68 6.68 6.68 3.69 0 6.68-2.99 6.68-6.68z"/>
							<path fill-rule="evenodd" class="s14" d="m573.46 191.07c-3.65 0-6.59-2.95-6.59-6.59 0-3.64 2.94-6.59 6.59-6.59 3.64 0 6.59 2.95 6.59 6.59 0 3.64-2.95 6.59-6.59 6.59z"/>
							<path class="s14" d="m584.74 207.59c0-2.79-2.26-5.05-5.05-5.05-2.79 0-5.05 2.26-5.05 5.05 0 2.79 2.26 5.05 5.05 5.05 2.79 0 5.05-2.26 5.05-5.05z"/>
							<path fill-rule="evenodd" class="s14" d="m536.58 223.29c-7.75 0-14.02-6.26-14.02-14.02 0-7.75 6.27-14.02 14.02-14.02 7.75 0 14.02 6.27 14.02 14.02 0 7.76-6.27 14.02-14.02 14.02z"/>
							<path fill-rule="evenodd" class="s14" d="m620.43 179.29c-3.94 0-7.13-3.18-7.13-7.12 0-3.94 3.19-7.12 7.13-7.12 3.94 0 7.12 3.18 7.12 7.12 0 3.94-3.18 7.12-7.12 7.12z"/>
							<path class="s14" d="m641.71 188.22c-3.33-3.33-8.74-3.33-12.07 0-3.33 3.33-3.33 8.74 0 12.07 3.33 3.33 8.74 3.33 12.07 0 3.33-3.33 3.33-8.74 0-12.07z"/>
						</g>
					</g>
				</g>
				<path class="s16" d="m675.51 183.99c-5.96 18.62-21.25 31.63-39.9 39.35q6.27 0.36 12.56 0.68c4.4 0.22 11.94 0.35 17.88 0.41 4.97 0.05 9.14-3.77 9.49-8.73 0.29-4.16 0.42-8.13 0.07-12.97-0.46-6.36-0.36-12.58-0.1-18.74z"/>
				<path class="s16" d="m530.07 184.3c-4.41-5.88-6.1-12.45-7.58-18.91l2.49 46.13c0.16 2.86 2.44 5.14 5.3 5.28 11.25 0.55 38.79 2.06 55.65 3.07-21.64-5.38-41.15-15.56-55.86-35.57z"/>
				<g>
					<g>
						<path class="s17" d="m582.25 147.57c1.93 0 1.93-3 0-3-1.93 0-1.94 3 0 3z"/>
					</g>
				</g>
				<g>
					<g>
						<path class="s17" d="m594.01 138.33q0 0.55 0 1.1c0 0.79 0.69 1.54 1.5 1.5 0.81-0.03 1.5-0.65 1.5-1.5q0-0.55 0-1.1c0-0.78-0.69-1.54-1.5-1.5-0.81 0.04-1.5 0.66-1.5 1.5z"/>
					</g>
				</g>
				<g>
					<g>
						<path class="s18" d="m554.62 201.72c1.93 0 1.93-3 0-3-1.93 0-1.94 3 0 3z"/>
					</g>
				</g>
				<g>
					<g>
						<path class="s18" d="m547.99 191.78c1.92 0 1.93-3 0-3-1.94 0-1.94 3 0 3z"/>
					</g>
				</g>
				<g>
					<g>
						<path class="s18" d="m647.46 211.67c1.92 0 1.93-3 0-3-1.94 0-1.94 3 0 3z"/>
					</g>
				</g>
				<g>
					<g>
						<path class="s18" d="m658.51 199.51c1.93 0 1.93-3 0-3-1.93 0-1.94 3 0 3z"/>
					</g>
				</g>
			</g>
		</g>
		<g>
			<path class="s19" d="m466.52 239.78c0 0-45.59-0.83-55.49-0.84-12.2-0.02-24.39 1.34-36.58 0.63-17.49-1.02-34.93-2.51-41.2-21.51-4.65-14.1 1.12-37.65 12.59-47.62 11.94-10.38 32.88-11.7 47.62-14.65 19.29-3.86 53.55-3.59 73.06-3.58 0 28.53-7.71 59.86 0 87.56z"/>
			<path class="s20" d="m426.76 230c-27.63 1.63-60.14-8.12-73.15-37.38-4.29-9.44-3.14-19.79 1.53-27.93-3.44 1.54-6.6 3.4-9.3 5.75-11.47 9.97-17.24 33.52-12.59 47.62 6.27 19 23.71 20.48 41.2 21.51 12.19 0.71 24.38-0.65 36.58-0.64 9.9 0.02 55.49 0.84 55.49 0.84-0.74-2.65-1.3-5.34-1.78-8.06-12.52-1-25.16-1.71-37.98-1.71z"/>
			<path class="s21" d="m514.48 243.85c8.54 2.8 22.81 1.65 35.89 2.39 9.46 0.52 25.51-1.51 34.73-4.09 8.04-2.24 9.83-9.41 5.88-19.09-3.47-8.52-26.36-1.96-34.19-1.52-15.92 0.9-27.46-4.44-42.96-1.28-8.79 1.79-11.65 19.55 0.65 23.59z"/>
			<path class="s19" d="m530.09 216.92c-7.85 0.79-31.75 3.99-17.23 14.76 7.86 5.83 22.99 3.66 32.22 3.64 10.55-0.02 21.35 0.65 31.82-0.73 4.28-0.56 12.19-0.86 14.49-5.46 2.91-5.81 1.89-18.59-61.3-12.21z"/>
			<path class="s22" d="m449.73 163.1c-6.06 10.52-9.21 24.44-8.78 36.55 0.58 16.13 7.94 37.69 25.9 40.78 35.1 6.05 39.54-49.63 27.38-70.87-3.23-5.65-7.41-11.21-13.14-14.26-5.85-3.11-22.59-7.45-31.36 7.8z"/>
			<path class="s21" d="m499.32 225.85c2.06 3.71 2.02 10.25 6.58 12.94 6.47 3.8 13.73-2.04 20.23-4.4 11.57-4.18 23.64-6.48 35.9-7.81 5.44-0.6 20.86-2.35 23.17-7.8 3.92-9.26-3.68-15.45-10.69-15.82-16.77-0.88-73.25 8.49-75.19 22.89z"/>
			<path class="s19" d="m510.04 230.26c13.01-0.71 21.01-5.08 29.51-6.76 10.51-2.07 17.78-3.39 28.26-5.55 6.84-1.41 21.75-4.88 13.22-12.87-5.94-5.57-27.25-4.05-34.66-3.06-9.96 1.34-20.38 4.07-29.41 8.64-4.83 2.45-12.59 5.96-16.05 10.19-3.94 4.81 1.71 9.81 9.13 9.41z"/>
		</g>
		<g>
			<path class="s23" d="m571.49 243.53c0.04 14.2 0 30.82 0 43.66-3.29 0.37-5.01 3.09-8.46 3.57-7.71 1.08-17.76 1.23-25.49 1.15-5.29-0.06-10.66-1.39-15.89-1.13-1.61-3.43-0.4-11.74 0.03-15.7 0.94-8.62 1.97-12.99 9.34-18.15 9.82-6.87 21.41-9.31 32.58-12.83 5.37-1.7 2.86-3.96 7.89-0.57z"/>
			<path class="s23" d="m428.32 272.24c0 0 0 36.05 0 36.15 0 23.54 53.68 29.21 70.52 31.25 34.15 4.15 82.54 4.49 108.58-21.58 2.99-3 4.53-7.13 4.41-11.36-0.25-8.77-0.62-24.77-0.45-34.46-4.08 3.58-5.55 9.42-9.34 13.59-5.29 5.83-13.48 8.07-20.6 10.8-14.58 5.59-27.8 5.3-43.1 6.72-27.81 2.57-56.5-3.65-82.16-14.06-7.32-2.97-24.78-8.45-27.86-17.05z"/>
			<path class="s24" d="m428.32 298.74c0 5.47 0 9.61 0 9.65 0 23.54 53.68 29.21 70.52 31.25 15.09 1.84 32.97 2.92 50.47 1.31-31.43-1.96-62.69-8.56-93.05-21.15-10.18-4.52-20.34-11.83-27.94-21.06z"/>
			<path class="s23" d="m428.32 272.24v0.26q0.01-0.11 0.02-0.22-0.01-0.02-0.02-0.04z"/>
			<path class="s25" d="m534.09 233.7c-29.49-3.52-59.83-0.21-85.15 13.09-5.63 2.96-11.1 6.5-15.06 11.47-3.97 4.97-6.27 11.57-4.9 17.78 1.68 7.66 8.4 13.17 15.27 16.96 14.47 8 31.1 11.12 47.52 13 35.33 4.05 75.94 3.79 107.09-15.49 3.67-2.26 6.93-5.19 9.38-8.74 3.52-5.1 4.37-9.75 3.45-13.87-0.23-1.03-1.17-1.74-2.22-1.73l-78.85 0.68 40.08-21.2c1.78-0.94 1.54-3.56-0.38-4.16-11.64-3.64-23.86-6.32-36.23-7.79z"/>
			<path class="s26" d="m570.7 245.65c1.78-0.94 1.53-3.55-0.38-4.16-11.64-3.64-23.86-6.32-36.24-7.79-23.1-2.76-46.71-1.3-68.04 5.85-0.43 2.35-0.19 4.85 0.95 7.58 21.09 51.42 89.31 38.34 134.65 19.11l-71.02 0.62z"/>
			<g>
				<g>
					<path class="s25" d="m541.94 323.01c1.93 0 1.94-3 0-3-1.93 0-1.93 3 0 3z"/>
				</g>
			</g>
			<g>
				<g>
					<path class="s25" d="m561.84 330.75c1.93 0 1.93-3 0-3-1.93 0-1.94 3 0 3z"/>
				</g>
			</g>
			<g>
				<g>
					<path class="s25" d="m594.6 313.77q0 0.56 0 1.11c0 0.79 0.69 1.54 1.5 1.5 0.81-0.04 1.5-0.66 1.5-1.5q0-0.55 0-1.11c0-0.78-0.69-1.53-1.5-1.5-0.81 0.04-1.5 0.66-1.5 1.5z"/>
				</g>
			</g>
			<g>
				<g>
					<path class="s25" d="m600.52 308.64c1.93 0 1.93-3 0-3-1.93 0-1.93 3 0 3z"/>
				</g>
			</g>
			<g>
				<g>
					<path class="s25" d="m589.07 309.35q0 0.56 0 1.11c0 0.78 0.69 1.53 1.5 1.5 0.82-0.04 1.5-0.66 1.5-1.5q0-0.55 0-1.11c0-0.78-0.69-1.53-1.5-1.5-0.81 0.04-1.5 0.66-1.5 1.5z"/>
				</g>
			</g>
			<g>
				<g>
					<path class="s25" d="m435.45 300.51q0 0.56 0 1.11c0 0.78 0.69 1.53 1.5 1.5 0.81-0.04 1.5-0.66 1.5-1.5q0-0.55 0-1.11c0-0.78-0.69-1.53-1.5-1.5-0.81 0.04-1.5 0.66-1.5 1.5z"/>
				</g>
			</g>
			<g>
				<g>
					<path class="s25" d="m443.18 308.25q0 0.55 0 1.1c0 0.79 0.69 1.54 1.5 1.5 0.82-0.03 1.5-0.65 1.5-1.5q0-0.55 0-1.1c0-0.79-0.69-1.54-1.5-1.5-0.81 0.04-1.5 0.66-1.5 1.5z"/>
				</g>
			</g>
			<g>
				<g>
					<path class="s27" d="m449.5 270.67q0-1.1 0-2.21c0-0.78-0.69-1.54-1.5-1.5-0.81 0.04-1.5 0.66-1.5 1.5q0 1.11 0 2.21c0 0.79 0.69 1.54 1.5 1.5 0.81-0.04 1.5-0.66 1.5-1.5z"/>
				</g>
			</g>
			<g>
				<g>
					<path class="s27" d="m463.47 271.38q-0.55 0-1.1 0c-0.79 0-1.54 0.69-1.5 1.5 0.03 0.81 0.66 1.5 1.5 1.5q0.55 0 1.1 0c0.79 0 1.54-0.69 1.5-1.5-0.03-0.81-0.66-1.5-1.5-1.5z"/>
				</g>
			</g>
			<g>
				<g>
					<path class="s27" d="m451.29 281.08c-0.76 1.32 0.29 2.65 1.69 2.68 1.41 0.03 2.42-1.4 1.68-2.69-0.4-0.7-1.35-0.94-2.05-0.53-0.7 0.41-0.94 1.34-0.54 2.05q0.25-0.86 0.5-1.71 0.12-0.05 0.25-0.1c-0.23 0.07 0.34-0.02 0.16-0.02-0.17 0 0.35 0.07 0.19 0.03q-0.11-0.03 0.1 0.04 0.92 0.33 0.61 1.76c0.4-0.7 0.17-1.64-0.54-2.05-0.7-0.41-1.65-0.17-2.05 0.54z"/>
				</g>
			</g>
			<g>
				<g>
					<path class="s27" d="m591.68 285.43c1.93 0 1.93-3 0-3-1.93 0-1.93 3 0 3z"/>
				</g>
			</g>
			<g>
				<g>
					<path class="s27" d="m591.68 285.43c1.93 0 1.93-3 0-3-1.93 0-1.93 3 0 3z"/>
				</g>
			</g>
			<g>
				<g>
					<path class="s27" d="m578.81 286.14q0-0.34 0-0.68c0-1.93-3-1.93-3 0q0 0.34 0 0.68c0 1.94 3 1.94 3 0q0-0.34 0-0.68c0-1.93-3-1.93-3 0q0 0.34 0 0.68c0 1.94 3 1.94 3 0z"/>
				</g>
			</g>
			<g>
				<g>
					<path class="s27" d="m585.77 278.17q-0.54 0.08-1.08 0.16c-0.8 0.13-1.24 1.13-1.05 1.85 0.24 0.85 1.04 1.17 1.85 1.05q0.54-0.09 1.08-0.17c0.8-0.12 1.24-1.13 1.05-1.85-0.24-0.85-1.05-1.17-1.85-1.04z"/>
				</g>
			</g>
			<g>
				<g>
					<path class="s27" d="m511 302.01c1.93 0 1.93-3 0-3-1.93 0-1.94 3 0 3z"/>
				</g>
			</g>
			<g>
				<g>
					<path class="s27" d="m523.15 295.38c1.93 0 1.94-3 0-3-1.92 0-1.93 3 0 3z"/>
				</g>
			</g>
			<g>
				<g>
					<path class="s28" d="m497.19 253.18c1.93 0 1.94-3 0-3-1.93 0-1.93 3 0 3z"/>
				</g>
			</g>
			<g>
				<g>
					<path class="s28" d="m507.95 243.51q0 0.51 0 1.02c0 0.79 0.69 1.54 1.5 1.5 0.81-0.03 1.5-0.66 1.5-1.5q0-0.51 0-1.02c0-0.78-0.69-1.53-1.5-1.5-0.82 0.04-1.5 0.66-1.5 1.5z"/>
				</g>
			</g>
			<g>
				<g>
					<path class="s28" d="m535.96 248.66q0.51 0.51 1.02 1.02c0.57 0.57 1.55 0.57 2.12 0 0.58-0.58 0.58-1.55 0-2.12q-0.51-0.51-1.02-1.02c-0.57-0.58-1.55-0.58-2.12 0-0.57 0.57-0.57 1.54 0 2.12z"/>
				</g>
			</g>
		</g>
		<g>
			<path class="s11" d="m408.14 274.16c-1.32-2.56-19.38-1.96-23.69-2.48-15.07-1.81-28.94-5.15-44.24-4.82-4.63 0.1-9.08-0.59-13.67-0.44-5.43 0.17-11.01 3.4-16.47 3.01-6.4-0.46-12.18-4.69-18.77-4.5-4.54 3.41-15.31 11.15-20 16.41-5.2 5.83-12.61 9.9-17.41 15.85 0.73-0.52 0.69-1.32 1.28-2.28 6.33 4.63 14.39 7.26 22.08 8.62 13.2 2.33 25.57 3.88 38.98 4.52 8.73 0.41 17.08-0.5 25.77 1.38 4.45 0.97 10.22 4.53 13.87 1.63 7-5.58 41.69-27.54 52.27-36.9z"/>
			<g>
				<path class="s29" d="m403.87 281.02c0 0-2.69-62.33-2.41-68.51 0 0-63.45-8.06-91.47-10.66-15.85-1.47-51.83-5.73-51.83-5.73 0.87 22.5 0.92 32.39 4 54.7 1.5 10.93 4.37 33.56 4.37 33.56 46.02-1 91.66-2.89 137.34-3.36z"/>
				<path class="s30" d="m402.9 257.53c-5.04 11.87-16.82 19.51-30.56 24.02q15.76-0.36 31.53-0.53c0 0-0.45-10.6-0.97-23.49z"/>
				<path class="s30" d="m259.99 232.24c0.5 5.46 1.17 11.37 2.16 18.58 1.51 10.93 4.38 33.56 4.38 33.56 22.38-0.49 44.66-1.18 66.91-1.83-19.14-1.65-37.54-5.12-53.59-14.12-11.78-6.52-16.9-20.67-19.86-36.19z"/>
				<path class="s31" d="m401.45 212.51c-10.38-3.27-23.37-7.56-42.96-17.25-13.16-6.52-33.91-14.43-33.91-14.43-8.67 1.82-15.18 5.4-24.32 6.76-12.51 1.86-42.1 8.53-42.1 8.53z"/>
				<path class="s32" d="m324.58 180.83c-8.67 1.82-28.49 7.43-31 7.9 20.58 0.26 41.44 1.52 61.78 5.04-12.68-5.76-30.78-12.94-30.78-12.94z"/>
				<path class="s33" d="m269.84 218.03c-0.05 3.63 2.62 6.61 6.04 7.49 3.79 0.97 8.62-0.34 9.23-4.79 0.47-3.47-0.6-7.82-3.95-9.53-1.25-0.64-2.95-0.57-4.28-0.54-4.79 0.1-7.02 5.53-7.04 7.37z"/>
				<path class="s33" d="m347.88 232.06c-0.03 2.47 1.79 4.5 4.12 5.1 2.58 0.66 5.87-0.23 6.28-3.26 0.33-2.36-0.4-5.32-2.69-6.49-0.85-0.43-2-0.39-2.91-0.37-3.27 0.07-4.78 3.77-4.8 5.02z"/>
				<path class="s33" d="m283.88 264.55c-0.05 3.92 2.83 7.13 6.52 8.08 4.09 1.05 9.29-0.36 9.95-5.16 0.51-3.74-0.64-8.43-4.26-10.28-1.34-0.69-3.18-0.62-4.61-0.59-5.17 0.12-7.57 5.97-7.6 7.95z"/>
				<path class="s33" d="m315.83 243.23c-0.03 2.47 1.79 4.5 4.11 5.1 2.59 0.66 5.87-0.23 6.29-3.26 0.32-2.36-0.41-5.33-2.69-6.49-0.85-0.44-2.01-0.39-2.91-0.37-3.27 0.07-4.78 3.76-4.8 5.02z"/>
				<path class="s33" d="m367.78 254.87c-0.05 3.47 2.5 6.31 5.77 7.15 3.62 0.93 8.23-0.32 8.81-4.57 0.45-3.31-0.57-7.47-3.77-9.1-1.19-0.61-2.82-0.55-4.09-0.52-4.58 0.1-6.7 5.28-6.72 7.04z"/>
				<path class="s34" d="m270.27 216.74c-0.04 2.95 2.12 5.36 4.89 6.07 3.08 0.79 6.99-0.27 7.48-3.88 0.39-2.81-0.48-6.33-3.2-7.72-1.01-0.52-2.39-0.47-3.46-0.44-3.89 0.09-5.69 4.48-5.71 5.97z"/>
				<path class="s34" d="m347.97 230.77c-0.02 1.95 1.4 3.54 3.23 4.01 2.04 0.52 4.62-0.18 4.94-2.56 0.26-1.86-0.31-4.18-2.11-5.1-0.67-0.34-1.58-0.31-2.29-0.29-2.57 0.06-3.76 2.96-3.77 3.94z"/>
				<path class="s34" d="m284.35 263.08c-0.05 3.34 2.4 6.08 5.54 6.88 3.48 0.89 7.91-0.31 8.47-4.39 0.43-3.19-0.55-7.18-3.63-8.75-1.14-0.59-2.7-0.53-3.92-0.5-4.4 0.1-6.44 5.07-6.46 6.76z"/>
				<path class="s34" d="m316.37 242.63c-0.02 1.79 1.3 3.27 2.99 3.7 1.88 0.48 4.26-0.17 4.56-2.37 0.24-1.71-0.29-3.86-1.95-4.71-0.62-0.31-1.46-0.28-2.12-0.27-2.37 0.06-3.46 2.74-3.48 3.65z"/>
				<path class="s34" d="m367.72 253.25c-0.04 2.63 1.9 4.79 4.37 5.42 2.75 0.71 6.24-0.24 6.68-3.46 0.34-2.51-0.43-5.66-2.86-6.9-0.9-0.46-2.13-0.41-3.1-0.39-3.46 0.08-5.07 4-5.09 5.33z"/>
				<g>
					<g>
						<g>
							<path class="s35" d="m309.87 225.88q0.16 0.17 0.32 0.34c0.56 0.58 1.55 0.56 2.12 0 0.58-0.59 0.56-1.54 0-2.13q-0.16-0.16-0.32-0.33c-0.57-0.58-1.56-0.57-2.12 0-0.59 0.58-0.57 1.54 0 2.12z"/>
						</g>
					</g>
					<g>
						<g>
							<path class="s35" d="m274.63 247.26c1.93 0 1.93-3 0-3-1.93 0-1.94 3 0 3z"/>
						</g>
					</g>
					<g>
						<g>
							<path class="s35" d="m335.41 269.06c1.93 0 1.94-3 0-3-1.93 0-1.93 3 0 3z"/>
						</g>
					</g>
					<g>
						<g>
							<path class="s35" d="m378.04 231.81c1.93 0 1.94-3 0-3-1.93 0-1.93 3 0 3z"/>
						</g>
					</g>
					<g>
						<g>
							<path class="s36" d="m348.47 250.25c1.93 0 1.93-3 0-3-1.93 0-1.94 3 0 3z"/>
						</g>
					</g>
					<g>
						<g>
							<path class="s35" d="m393.7 266.67q0.17 0 0.33-0.01c0.79-0.03 1.54-0.67 1.5-1.5-0.03-0.79-0.66-1.53-1.5-1.5q-0.16 0.01-0.33 0.01c-0.78 0.03-1.53 0.67-1.5 1.5 0.04 0.79 0.66 1.53 1.5 1.5z"/>
						</g>
					</g>
				</g>
				<g>
					<g>
						<path class="s37" d="m287.83 194.97q0.51 0 1.02 0c0.79 0 1.54-0.69 1.5-1.5-0.03-0.81-0.66-1.5-1.5-1.5q-0.51 0-1.02 0c-0.79 0-1.54 0.69-1.5 1.5 0.04 0.81 0.66 1.5 1.5 1.5z"/>
					</g>
				</g>
				<g>
					<g>
						<path class="s37" d="m301.58 197.55q0-0.51 0-1.02c0-0.78-0.69-1.53-1.5-1.5-0.81 0.04-1.5 0.66-1.5 1.5q0 0.51 0 1.02c0 0.79 0.69 1.54 1.5 1.5 0.82-0.03 1.5-0.66 1.5-1.5z"/>
					</g>
				</g>
				<g>
					<g>
						<path class="s37" d="m355.23 201.1c1.93 0 1.94-3 0-3-1.93 0-1.93 3 0 3z"/>
					</g>
				</g>
				<g>
					<g>
						<path class="s37" d="m364.43 205.18c1.93 0 1.93-3 0-3-1.94 0-1.94 3 0 3z"/>
					</g>
				</g>
			</g>
		</g>
		<g>
			<path class="s11" d="m149.18 304.32c-8.94 9.66-22.92 22.82-2.71 30.21 19.36 7.08 47.96 3.08 68.72 3.1 17.35 0.02 36.47-1.41 51.49-10.14 7.15-4.17 17.59-10.99 15.22-20.94-3.69-15.51-37-15.77-48.53-16.61-29.57-2.14-59.61 1.67-84.19 14.38z"/>
			<path class="s11" d="m405.38 330.86c-2.25-9.64-22.54-9.8-29.56-10.32-6.69-0.49-13.43-0.48-20.02 0.15-7.19-3.28-18.4-3.47-23.25-3.83-18.01-1.33-36.31 1.03-51.27 8.94-5.45 6-13.96 14.18-1.65 18.78 11.17 4.17 27.39 2.16 39.81 1.95q1.34 0.93 3.47 1.73c11.78 4.4 29.2 1.92 41.84 1.93 10.57 0.01 22.21-0.88 31.36-6.31 4.35-2.59 10.71-6.83 9.27-13.02z"/>
			<g>
				<path class="s38" d="m312.21 318.27c1.08 3.46 5.37 16.91 9.47 19.17 7.6 4.19 14.67 3.9 18.87 4.87 5.79 1.34 35.54 2.89 46.04 0.5 10.27-2.34 30.14-5.51 25.81-20.22-5.82-19.77-24.42-15.59-39.6-16.54-12.36-0.78-23.64 0.61-35.65 2.23-9.55 1.29-26.19 5.98-24.94 9.99z"/>
				<path class="s19" d="m382.51 304.06c-16.05-2.33-33.11-3.54-47.93 0.78-6.12 1.78-22.02 5.72-22.37 13.43-0.77 16.56 52.07 13.64 62.4 12.93 7.34-0.51 43.07-4.84 31.63-18.47-4.6-5.5-14.41-7.32-23.73-8.67z"/>
				<path class="s19" d="m214.43 230.27c-23.74 0.41-49.58 4.1-61.06 26.28-7.5 14.51-10.43 28.68-0.88 43.48 16.75 25.94 105.47 26.57 128.16 13.92 11.64-6.48 29.51-16.36 30.82-29.71 1.23-12.51 1.78-22.47-7.91-30.13-11.59-9.16-18.53-11.38-32.29-15.12-13.57-3.69-42.53-8.97-56.84-8.72z"/>
				<path class="s20" d="m167.94 284.63c-5.25-12.63-0.45-36.4 6.44-47.41-8.73 3.92-16.16 9.97-21.01 19.33-7.5 14.51-10.44 28.68-0.88 43.48 8.58 13.3 36.08 19.93 63.9 21.55-24.94-2.96-39.1-15.47-48.45-36.95z"/>
				<path class="s21" d="m271.27 238.99c-7.22-1.43-17.76-0.25-24.35 1.61-11.49 3.24-21.16 9.52-29.84 17.52-11.91 10.96-17.46 24.84-11.71 40.61 9.99 27.37 47.81 25.82 70.27 17.33 19.21-7.25 42.93-25.97 35.93-48.07-3.76-11.87-12.89-23.59-40.3-29z"/>
				<path class="s38" d="m278.71 315.42c2.05 3.63 10.07 17.71 14.85 19.04 8.84 2.46 15.94-0.05 20.47-0.23 6.23-0.25 36.84-7.64 46.83-13.63 9.78-5.85 29.07-15.61 20.67-31.12-11.3-20.87-29.04-10.34-44.69-6.76-12.75 2.92-23.81 7.99-35.55 13.55-9.34 4.43-24.94 14.94-22.58 19.15z"/>
				<path class="s19" d="m346.14 277.45c-16.91 2.29-34.55 6.16-48.4 15.68-5.72 3.93-20.77 13.35-19.03 22.29 3.75 19.22 56.55-0.43 66.83-4.43 7.31-2.84 42.37-18.82 27.05-30.92-6.17-4.88-16.62-3.95-26.45-2.62z"/>
			</g>
		</g>
	</g>
</svg>