<svg version="1.1" xmlns="http://www.w3.org/2000/svg" style="display: block;" viewBox="0 0 2048 2048" width="1024" height="1024" preserveAspectRatio="none">
<defs>
	<linearGradient id="Gradient1" gradientUnits="userSpaceOnUse" x1="1041.09" y1="950.111" x2="867.704" y2="1104.31">
		<stop class="stop0" offset="0" stop-opacity="1" stop-color="rgb(74,38,13)"/>
		<stop class="stop1" offset="1" stop-opacity="1" stop-color="rgb(57,38,30)"/>
	</linearGradient>
</defs>
<path transform="translate(0,0)" fill="rgb(255,255,255)" d="M 0 0 L 2048 0 L 2048 2048 L 0 2048 L 0 0 z"/>
<path transform="translate(0,0)" fill="rgb(139,81,42)" d="M 636.216 864.688 C 637.918 851.308 644.2 838.929 653.996 829.656 C 680.974 804.544 728.522 805.793 748.395 838.751 C 749.573 840.704 755.634 849.496 757.137 850.779 C 765.285 845.764 772.775 841.087 782.221 839.082 C 815.088 832.106 839.945 848.598 851.47 878.749 C 858.851 872.858 862.958 869.906 871.505 866.052 C 905.919 853.501 939.897 867.194 951.753 902.505 C 955.436 913.418 956.633 925.016 955.257 936.452 C 985.336 936.658 1004.48 942.164 1017.82 972.054 L 1018.41 973.35 L 1018.76 974.133 C 1018.77 974.132 1037.24 967.834 1044.55 966.703 C 1049.21 966.727 1054.2 966.656 1058.82 966.892 C 1077.4 971.091 1091.86 977.428 1102.95 994.553 C 1111.84 1008.27 1113.66 1024.69 1111.52 1040.82 C 1111.06 1044.37 1107.65 1051.96 1107.31 1055.33 C 1124.79 1049.27 1140.32 1046.66 1158.02 1055.14 C 1171.59 1061.72 1181.97 1073.44 1186.87 1087.71 C 1192.87 1105.1 1189.77 1119.6 1183.6 1136.02 L 1256.09 1136.11 C 1257.45 1163.12 1257.36 1190.18 1255.84 1217.18 C 1255.58 1222.53 1255.11 1237.21 1254.28 1241.88 C 1253.58 1251.24 1252.71 1260.58 1251.68 1269.91 C 1233.47 1383.93 1196.12 1471.78 1099.88 1541.91 C 1072.93 1561.54 1017.04 1592.41 985.272 1601.77 L 985.426 1667.24 C 880.003 1687.83 811.474 1695.68 704.526 1697.42 C 637.419 1697.78 570.383 1692.98 504.013 1683.05 C 473.127 1678.48 442.099 1671.83 412.099 1667.48 L 412.01 1600.94 C 397.689 1596.92 382.657 1590.65 369.042 1584.63 C 244.598 1529.6 165.006 1404.73 150.373 1271.27 C 148.776 1262.02 147.679 1251.12 146.501 1241.71 C 143.73 1203.81 144.019 1174.24 144.168 1136.07 C 155.514 1136.1 217.81 1137.3 223.842 1134.8 C 213.95 1124.74 207.577 1111.82 206.763 1097.61 C 205.771 1081.53 211.464 1065.75 222.497 1054 C 233.259 1042.59 248.302 1036.19 263.99 1036.36 C 284.542 1036.47 296.381 1044.98 310.274 1058.72 L 312.691 1058.04 C 315.832 1058.59 323.632 1054.14 327.291 1052.82 C 344.353 1046.68 365.274 1055.89 377.937 1067.34 C 379.124 1068.42 380.293 1069.52 381.442 1070.64 L 388.596 1065.51 C 374.792 1027.56 383.739 1009.15 412.747 984.45 C 416.165 982.146 421.621 979.846 425.495 978.052 C 455.963 977.047 471.463 974.645 494.459 1000.26 C 503.605 995.813 518.552 976.795 529.357 971.262 C 529.857 971.006 530.141 969.766 530.302 969.205 C 533.984 970.778 543.974 968.073 548.488 967.516 C 554.457 966.779 558.731 966.969 564.708 967.3 C 575.808 970.769 580.711 972.32 589.893 979.729 L 590.313 973.703 C 589.528 970.671 588.982 966.759 588.442 963.613 L 587.692 963.119 C 588.594 961.63 590.99 952.208 591.912 949.522 C 597.346 933.708 605.542 925.305 617.358 914.177 L 625.413 909.018 C 628.384 908.176 647.372 903.354 648.286 902.943 C 643.304 887.401 640.51 887.991 637.374 869.125 L 636.857 865.573 L 636.216 864.688 z"/>
<path transform="translate(0,0)" fill="rgb(180,121,80)" d="M 530.302 969.205 C 533.984 970.778 543.974 968.073 548.488 967.516 C 554.457 966.779 558.731 966.969 564.708 967.3 C 575.808 970.769 580.711 972.32 589.893 979.729 C 595.555 989.054 598.155 997.352 602.72 1007.13 C 606.428 1008.38 612.93 1015.5 616.178 1018.54 L 619.485 1022.35 C 613.008 1025.14 609.085 1028.46 603.754 1033.06 C 602.231 1035.94 588.937 1055.54 586.784 1057.84 L 587.505 1058.84 L 587.153 1059.98 C 582.47 1075.59 582.796 1091.41 590.522 1106.14 C 596.416 1117.37 607.748 1125.52 613.241 1135.53 L 614.217 1137.27 C 631.968 1138.12 674.72 1137.28 692.459 1136.16 L 703.91 1136.49 L 703.989 1205.55 C 703.984 1215.29 704.493 1231.52 703.827 1240.85 L 704.523 1241.07 C 703.34 1250.76 704.346 1261.11 703.848 1270.81 L 703.318 1271.02 C 704.482 1277.6 703.895 1300.04 703.871 1307.83 L 703.745 1384.95 L 703.984 1557.63 C 704.006 1578.89 705.537 1619.16 704.247 1638.98 L 704.883 1639.19 C 703.129 1651.87 704.279 1683.2 704.526 1697.42 C 637.419 1697.78 570.383 1692.98 504.013 1683.05 C 473.127 1678.48 442.099 1671.83 412.099 1667.48 L 412.01 1600.94 C 397.689 1596.92 382.657 1590.65 369.042 1584.63 C 244.598 1529.6 165.006 1404.73 150.373 1271.27 C 148.776 1262.02 147.679 1251.12 146.501 1241.71 C 143.73 1203.81 144.019 1174.24 144.168 1136.07 C 155.514 1136.1 217.81 1137.3 223.842 1134.8 C 213.95 1124.74 207.577 1111.82 206.763 1097.61 C 205.771 1081.53 211.464 1065.75 222.497 1054 C 233.259 1042.59 248.302 1036.19 263.99 1036.36 C 284.542 1036.47 296.381 1044.98 310.274 1058.72 L 312.691 1058.04 C 315.832 1058.59 323.632 1054.14 327.291 1052.82 C 344.353 1046.68 365.274 1055.89 377.937 1067.34 C 379.124 1068.42 380.293 1069.52 381.442 1070.64 L 388.596 1065.51 C 374.792 1027.56 383.739 1009.15 412.747 984.45 C 416.165 982.146 421.621 979.846 425.495 978.052 C 455.963 977.047 471.463 974.645 494.459 1000.26 C 503.605 995.813 518.552 976.795 529.357 971.262 C 529.857 971.006 530.141 969.766 530.302 969.205 z"/>
<path transform="translate(0,0)" fill="rgb(180,121,80)" d="M 530.302 969.205 C 533.984 970.778 543.974 968.073 548.488 967.516 C 554.457 966.779 558.731 966.969 564.708 967.3 C 575.808 970.769 580.711 972.32 589.893 979.729 C 595.555 989.054 598.155 997.352 602.72 1007.13 C 606.428 1008.38 612.93 1015.5 616.178 1018.54 L 619.485 1022.35 C 613.008 1025.14 609.085 1028.46 603.754 1033.06 C 602.231 1035.94 588.937 1055.54 586.784 1057.84 L 587.505 1058.84 L 587.153 1059.98 C 582.47 1075.59 582.796 1091.41 590.522 1106.14 C 596.416 1117.37 607.748 1125.52 613.241 1135.53 L 614.217 1137.27 C 631.968 1138.12 674.72 1137.28 692.459 1136.16 L 703.91 1136.49 L 703.989 1205.55 C 703.984 1215.29 704.493 1231.52 703.827 1240.85 L 704.523 1241.07 C 703.34 1250.76 704.346 1261.11 703.848 1270.81 L 703.318 1271.02 L 324.748 1270.95 L 239.728 1271.06 L 150.373 1271.27 C 148.776 1262.02 147.679 1251.12 146.501 1241.71 C 143.73 1203.81 144.019 1174.24 144.168 1136.07 C 155.514 1136.1 217.81 1137.3 223.842 1134.8 C 213.95 1124.74 207.577 1111.82 206.763 1097.61 C 205.771 1081.53 211.464 1065.75 222.497 1054 C 233.259 1042.59 248.302 1036.19 263.99 1036.36 C 284.542 1036.47 296.381 1044.98 310.274 1058.72 L 312.691 1058.04 C 315.832 1058.59 323.632 1054.14 327.291 1052.82 C 344.353 1046.68 365.274 1055.89 377.937 1067.34 C 379.124 1068.42 380.293 1069.52 381.442 1070.64 L 388.596 1065.51 C 374.792 1027.56 383.739 1009.15 412.747 984.45 C 416.165 982.146 421.621 979.846 425.495 978.052 C 455.963 977.047 471.463 974.645 494.459 1000.26 C 503.605 995.813 518.552 976.795 529.357 971.262 C 529.857 971.006 530.141 969.766 530.302 969.205 z"/>
<path transform="translate(0,0)" fill="rgb(73,36,13)" d="M 530.302 969.205 C 533.984 970.778 543.974 968.073 548.488 967.516 C 554.457 966.779 558.731 966.969 564.708 967.3 C 575.808 970.769 580.711 972.32 589.893 979.729 C 595.555 989.054 598.155 997.352 602.72 1007.13 C 606.428 1008.38 612.93 1015.5 616.178 1018.54 L 619.485 1022.35 C 613.008 1025.14 609.085 1028.46 603.754 1033.06 C 602.231 1035.94 588.937 1055.54 586.784 1057.84 L 587.505 1058.84 L 587.153 1059.98 C 582.47 1075.59 582.796 1091.41 590.522 1106.14 C 596.416 1117.37 607.748 1125.52 613.241 1135.53 L 614.217 1137.27 C 590.79 1136.76 565.471 1138.29 541.762 1137.29 C 534.431 1136.98 521.071 1137.65 514.276 1136.46 C 486.447 1134.65 450.709 1136.65 421.852 1136.11 C 422.335 1121.22 418.852 1118.6 423.747 1103.59 C 424.647 1099.28 425.606 1098.33 424.39 1094.74 C 406.874 1088.14 398.262 1081.27 388.596 1065.51 C 374.792 1027.56 383.739 1009.15 412.747 984.45 C 416.165 982.146 421.621 979.846 425.495 978.052 C 455.963 977.047 471.463 974.645 494.459 1000.26 C 503.605 995.813 518.552 976.795 529.357 971.262 C 529.857 971.006 530.141 969.766 530.302 969.205 z"/>
<path transform="translate(0,0)" fill="rgb(94,49,18)" d="M 425.495 978.052 C 455.963 977.047 471.463 974.645 494.459 1000.26 C 504.988 1018.64 510.191 1035.85 502.12 1056.75 L 501.06 1058.18 C 487.046 1077.33 484.746 1090.84 457.19 1096.63 C 444.463 1099.31 428.79 1091.32 425.053 1101.89 C 424.706 1102.87 424.755 1102.66 423.747 1103.59 C 424.647 1099.28 425.606 1098.33 424.39 1094.74 C 406.874 1088.14 398.262 1081.27 388.596 1065.51 C 374.792 1027.56 383.739 1009.15 412.747 984.45 C 416.165 982.146 421.621 979.846 425.495 978.052 z"/>
<path transform="translate(0,0)" fill="rgb(27,24,23)" d="M 437.802 993.567 C 451.39 992.512 463.314 1002.55 464.599 1016.11 C 465.884 1029.68 456.054 1041.77 442.51 1043.29 C 433.542 1044.29 424.73 1040.38 419.46 1033.05 C 414.19 1025.73 413.281 1016.13 417.083 1007.95 C 420.884 999.762 428.805 994.265 437.802 993.567 z"/>
<path transform="translate(0,0)" fill="rgb(156,118,96)" d="M 514.276 1136.46 C 514.504 1135.27 514.901 1134.6 514.438 1133.51 C 493.472 1084.35 536.624 1039.01 586.784 1057.84 L 587.505 1058.84 L 587.153 1059.98 C 582.47 1075.59 582.796 1091.41 590.522 1106.14 C 596.416 1117.37 607.748 1125.52 613.241 1135.53 L 614.217 1137.27 C 590.79 1136.76 565.471 1138.29 541.762 1137.29 C 534.431 1136.98 521.071 1137.65 514.276 1136.46 z"/>
<path transform="translate(0,0)" fill="rgb(156,118,96)" d="M 530.302 969.205 C 533.984 970.778 543.974 968.073 548.488 967.516 C 554.457 966.779 558.731 966.969 564.708 967.3 C 521.983 983.13 499.756 1024.34 515.234 1068.09 C 510.726 1064.41 506.499 1060.58 502.12 1056.75 C 510.191 1035.85 504.988 1018.64 494.459 1000.26 C 503.605 995.813 518.552 976.795 529.357 971.262 C 529.857 971.006 530.141 969.766 530.302 969.205 z"/>
<path transform="translate(0,0)" fill="rgb(180,121,80)" d="M 602.72 1007.13 C 606.428 1008.38 612.93 1015.5 616.178 1018.54 L 619.485 1022.35 C 613.008 1025.14 609.085 1028.46 603.754 1033.06 C 604.853 1023.99 604.603 1016.06 602.72 1007.13 z"/>
<path transform="translate(0,0)" fill="rgb(156,118,96)" d="M 223.842 1134.8 C 213.95 1124.74 207.577 1111.82 206.763 1097.61 C 205.771 1081.53 211.464 1065.75 222.497 1054 C 233.259 1042.59 248.302 1036.19 263.99 1036.36 C 284.542 1036.47 296.381 1044.98 310.274 1058.72 L 312.691 1058.04 C 315.832 1058.59 323.632 1054.14 327.291 1052.82 C 344.353 1046.68 365.274 1055.89 377.937 1067.34 C 379.124 1068.42 380.293 1069.52 381.442 1070.64 L 388.596 1065.51 C 398.262 1081.27 406.874 1088.14 424.39 1094.74 C 425.606 1098.33 424.647 1099.28 423.747 1103.59 C 418.852 1118.6 422.335 1121.22 421.852 1136.11 L 384.755 1135.92 C 354.586 1136.61 322.596 1135.96 292.205 1136.15 C 280.667 1136.06 230.408 1138.93 223.842 1134.8 z"/>
<path transform="translate(0,0)" fill="rgb(63,46,38)" d="M 223.842 1134.8 C 213.95 1124.74 207.577 1111.82 206.763 1097.61 C 205.771 1081.53 211.464 1065.75 222.497 1054 C 233.259 1042.59 248.302 1036.19 263.99 1036.36 C 284.542 1036.47 296.381 1044.98 310.274 1058.72 C 283.171 1082.19 276.387 1102.46 292.205 1136.15 C 280.667 1136.06 230.408 1138.93 223.842 1134.8 z"/>
<path transform="translate(0,0)" fill="rgb(42,35,32)" d="M 388.596 1065.51 C 398.262 1081.27 406.874 1088.14 424.39 1094.74 C 425.606 1098.33 424.647 1099.28 423.747 1103.59 C 418.852 1118.6 422.335 1121.22 421.852 1136.11 L 384.755 1135.92 C 389.349 1128.83 392.345 1120.83 393.534 1112.47 C 395.72 1096.39 390.826 1083.17 381.442 1070.64 L 388.596 1065.51 z"/>
<path transform="translate(0,0)" fill="rgb(108,59,26)" d="M 146.501 1241.71 C 151.354 1239.73 222.01 1240.94 233.039 1241.02 L 321.92 1241.03 L 580.103 1240.95 C 620.857 1240.96 663.238 1241.62 703.827 1240.85 L 704.523 1241.07 C 703.34 1250.76 704.346 1261.11 703.848 1270.81 L 703.318 1271.02 L 324.748 1270.95 L 239.728 1271.06 L 150.373 1271.27 C 148.776 1262.02 147.679 1251.12 146.501 1241.71 z"/>
<path transform="translate(0,0)" fill="rgb(226,194,172)" d="M 231.496 1200.27 C 261.031 1200.09 291.933 1199.58 321.4 1200.11 C 321.69 1213.75 321.864 1227.39 321.92 1241.03 L 233.039 1241.02 C 232.419 1227.76 231.512 1213.46 231.496 1200.27 z"/>
<path transform="translate(0,0)" fill="rgb(108,59,26)" d="M 412.01 1600.94 C 486.151 1620.36 554.847 1632.07 631.606 1635.94 C 656.091 1637.17 679.457 1639.7 704.247 1638.98 L 704.883 1639.19 C 703.129 1651.87 704.279 1683.2 704.526 1697.42 C 637.419 1697.78 570.383 1692.98 504.013 1683.05 C 473.127 1678.48 442.099 1671.83 412.099 1667.48 L 412.01 1600.94 z"/>
<path transform="translate(0,0)" fill="rgb(226,194,172)" d="M 239.728 1271.06 L 324.748 1270.95 C 332.679 1369.76 388.391 1459.81 467.893 1517.8 C 475.587 1523.42 484.22 1528.95 491.415 1535.1 L 492.207 1535.79 C 380.746 1501.55 283.582 1423.35 248.675 1309.61 C 245.025 1297.72 239.54 1283.54 239.728 1271.06 z"/>
<path transform="translate(0,0)" fill="rgb(42,35,32)" d="M 636.216 864.688 C 637.918 851.308 644.2 838.929 653.996 829.656 C 680.974 804.544 728.522 805.793 748.395 838.751 C 749.573 840.704 755.634 849.496 757.137 850.779 C 765.285 845.764 772.775 841.087 782.221 839.082 C 815.088 832.106 839.945 848.598 851.47 878.749 C 858.851 872.858 862.958 869.906 871.505 866.052 C 905.919 853.501 939.897 867.194 951.753 902.505 C 955.436 913.418 956.633 925.016 955.257 936.452 C 985.336 936.658 1004.48 942.164 1017.82 972.054 L 1018.41 973.35 L 1018.76 974.133 C 1018.77 974.132 1037.24 967.834 1044.55 966.703 C 1049.21 966.727 1054.2 966.656 1058.82 966.892 C 1077.4 971.091 1091.86 977.428 1102.95 994.553 C 1111.84 1008.27 1113.66 1024.69 1111.52 1040.82 C 1111.06 1044.37 1107.65 1051.96 1107.31 1055.33 C 1124.79 1049.27 1140.32 1046.66 1158.02 1055.14 C 1171.59 1061.72 1181.97 1073.44 1186.87 1087.71 C 1192.87 1105.1 1189.77 1119.6 1183.6 1136.02 L 1181.36 1136.12 C 1173.4 1137.47 1157.52 1137.07 1149.07 1137.04 L 1099.4 1136.87 C 1031.97 1136.79 961.903 1135.72 894.735 1136.99 L 877.034 1136.88 C 850.772 1137.94 809.127 1137.6 782.948 1136.82 C 757.531 1137.32 729.759 1136.41 703.91 1136.49 L 692.459 1136.16 C 674.72 1137.28 631.968 1138.12 614.217 1137.27 L 613.241 1135.53 C 607.748 1125.52 596.416 1117.37 590.522 1106.14 C 582.796 1091.41 582.47 1075.59 587.153 1059.98 L 587.505 1058.84 L 586.784 1057.84 C 588.937 1055.54 602.231 1035.94 603.754 1033.06 C 609.085 1028.46 613.008 1025.14 619.485 1022.35 L 616.178 1018.54 C 612.93 1015.5 606.428 1008.38 602.72 1007.13 C 598.155 997.352 595.555 989.054 589.893 979.729 L 590.313 973.703 C 589.528 970.671 588.982 966.759 588.442 963.613 L 587.692 963.119 C 588.594 961.63 590.99 952.208 591.912 949.522 C 597.346 933.708 605.542 925.305 617.358 914.177 L 625.413 909.018 C 628.384 908.176 647.372 903.354 648.286 902.943 C 643.304 887.401 640.51 887.991 637.374 869.125 L 636.857 865.573 L 636.216 864.688 z"/>
<path transform="translate(0,0)" fill="url(#Gradient1)" d="M 871.505 866.052 C 905.919 853.501 939.897 867.194 951.753 902.505 C 955.436 913.418 956.633 925.016 955.257 936.452 C 985.336 936.658 1004.48 942.164 1017.82 972.054 L 1018.41 973.35 L 1018.76 974.133 C 1018.77 974.132 1037.24 967.834 1044.55 966.703 C 1049.21 966.727 1054.2 966.656 1058.82 966.892 C 1077.4 971.091 1091.86 977.428 1102.95 994.553 C 1111.84 1008.27 1113.66 1024.69 1111.52 1040.82 C 1111.06 1044.37 1107.65 1051.96 1107.31 1055.33 C 1124.79 1049.27 1140.32 1046.66 1158.02 1055.14 C 1171.59 1061.72 1181.97 1073.44 1186.87 1087.71 C 1192.87 1105.1 1189.77 1119.6 1183.6 1136.02 L 1181.36 1136.12 C 1173.4 1137.47 1157.52 1137.07 1149.07 1137.04 L 1099.4 1136.87 C 1031.97 1136.79 961.903 1135.72 894.735 1136.99 C 893.743 1131.21 895.984 1128.66 898.507 1123.57 C 904.167 1112.16 905.759 1103.79 907.389 1091.21 C 903.31 1072.88 897.256 1058.2 882.443 1045.62 C 879.755 1037.25 880.632 1034.94 884.948 1027.49 C 888.913 1024.74 891.536 1020.21 893.899 1016.15 C 894.852 1007.5 899.509 1001.63 904.914 995.447 C 910.977 990.338 913.844 988.333 920.842 984.852 C 920.6 973.886 920.721 963.456 917.669 952.82 C 913.025 936.504 902.023 922.736 887.134 914.606 C 869.633 905.08 852.859 905.833 834.302 911.238 C 836.318 901.579 837.053 894.587 844.414 887.632 L 851.47 878.749 C 858.851 872.858 862.958 869.906 871.505 866.052 z"/>
<path transform="translate(0,0)" fill="rgb(139,81,42)" d="M 920.842 984.852 C 926.411 982.757 929.328 981.877 935.034 980.407 C 955.644 987.139 971.369 991.08 982.315 1012.51 C 990.45 1028.28 991.96 1046.65 986.51 1063.54 C 984.423 1069.79 981.739 1074.66 977.979 1080.13 C 946.771 1065.73 932.752 1069.01 907.389 1091.21 C 903.31 1072.88 897.256 1058.2 882.443 1045.62 C 879.755 1037.25 880.632 1034.94 884.948 1027.49 C 888.913 1024.74 891.536 1020.21 893.899 1016.15 C 894.852 1007.5 899.509 1001.63 904.914 995.447 C 910.977 990.338 913.844 988.333 920.842 984.852 z"/>
<path transform="translate(0,0)" fill="rgb(27,24,23)" d="M 941.41 1007.37 C 949.639 1005.81 958.069 1008.8 963.481 1015.19 C 968.893 1021.58 970.449 1030.39 967.556 1038.25 C 964.663 1046.11 957.768 1051.81 949.503 1053.16 C 938.34 1055 927.477 1048.53 923.767 1037.84 C 922.447 1034.04 922.136 1029.97 922.864 1026.01 C 924.601 1016.56 931.97 1009.15 941.41 1007.37 z"/>
<path transform="translate(0,0)" fill="rgb(27,24,23)" d="M 1107.31 1055.33 C 1124.79 1049.27 1140.32 1046.66 1158.02 1055.14 C 1171.59 1061.72 1181.97 1073.44 1186.87 1087.71 C 1192.87 1105.1 1189.77 1119.6 1183.6 1136.02 L 1181.36 1136.12 C 1158.85 1134.83 1124.75 1135.89 1101.53 1135.98 C 1104.28 1110.12 1103.16 1094.43 1086.62 1074.57 C 1086.5 1074.24 1086.38 1073.91 1086.25 1073.58 C 1094.22 1066.91 1097.65 1061.51 1107.31 1055.33 z"/>
<path transform="translate(0,0)" fill="rgb(94,49,18)" d="M 1058.82 966.892 C 1077.4 971.091 1091.86 977.428 1102.95 994.553 C 1111.84 1008.27 1113.66 1024.69 1111.52 1040.82 C 1111.06 1044.37 1107.65 1051.96 1107.31 1055.33 C 1097.65 1061.51 1094.22 1066.91 1086.25 1073.58 C 1082.7 1067.48 1095.17 1055.9 1097.68 1049.09 C 1101.84 1040.26 1097.64 1032.88 1092.19 1025.32 C 1082.97 1012.56 1077.12 997.512 1069.03 984.018 C 1065.6 978.291 1061.03 973.288 1058.82 966.892 z"/>
<path transform="translate(0,0)" fill="rgb(108,59,26)" d="M 1018.76 974.133 C 1018.77 974.132 1037.24 967.834 1044.55 966.703 C 1046.14 980.492 1048.7 994.367 1048.11 1008.15 C 1030.74 1007.86 1028 1008.69 1011.08 1013.22 C 1005.23 1005.83 1001.43 1001.87 994.692 995.186 C 999.974 990.229 1004.71 985.231 1010.12 980.414 C 1012.63 978.18 1016.93 975.872 1018.76 974.133 z"/>
<path transform="translate(0,0)" fill="rgb(108,59,26)" d="M 851.47 878.749 C 858.851 872.858 862.958 869.906 871.505 866.052 C 882.528 878.262 947.683 864.497 943.886 937.308 C 943.75 939.99 943.523 942.667 943.205 945.335 C 939.535 937.864 938.38 930.276 935.821 922.471 C 930.343 906.037 917.717 892.968 901.481 886.926 C 877.667 877.853 864.918 885.049 844.414 887.632 L 851.47 878.749 z"/>
<path transform="translate(0,0)" fill="rgb(94,49,18)" d="M 1064.04 1023.7 C 1080.46 1040.38 1079.22 1043.04 1072.27 1064.2 C 1064.44 1061.6 1058.98 1059.66 1050.89 1058.23 C 1043.44 1057.61 1038.55 1057.6 1031.04 1057.76 C 1048.78 1041.78 1050.12 1045.98 1064.04 1023.7 z"/>
<path transform="translate(0,0)" fill="rgb(94,49,18)" d="M 1016.87 1046.55 C 1022.53 1049 1025.37 1053.31 1029.11 1058.03 L 1020.24 1063.55 C 1016.81 1064.97 1015.25 1066.5 1012.69 1063.58 C 1012.18 1058.62 1015.18 1051.61 1016.87 1046.55 z"/>
<path transform="translate(0,0)" fill="rgb(139,81,42)" d="M 636.216 864.688 C 637.918 851.308 644.2 838.929 653.996 829.656 C 680.974 804.544 728.522 805.793 748.395 838.751 C 749.573 840.704 755.634 849.496 757.137 850.779 C 765.285 845.764 772.775 841.087 782.221 839.082 C 815.088 832.106 839.945 848.598 851.47 878.749 L 844.414 887.632 C 837.053 894.587 836.318 901.579 834.302 911.238 C 826.869 915.113 819.656 920.783 812.885 925.824 C 806.576 931.491 805.224 935.956 800.799 940.783 C 797.416 946.448 796.125 948.245 794.444 954.776 L 794.175 955.45 C 792.355 965.835 791.763 972.844 792.024 983.492 C 783.539 985.22 781.218 987.331 774.868 993.448 C 757.754 975.28 741.381 972.997 718.099 977.885 C 711.184 981.1 704.843 983.762 699.102 988.942 C 696.174 992.677 693.381 996.321 690.243 999.89 C 688.702 1003.11 687.134 1006.3 685.768 1009.6 L 683.576 1021.71 C 665.651 1016.3 663.03 1011.84 641.497 1015.48 C 638.072 1016.06 633.385 1016.23 630.004 1014.72 C 627.6 1017.11 622.938 1022.8 619.485 1022.35 L 616.178 1018.54 C 612.93 1015.5 606.428 1008.38 602.72 1007.13 C 598.155 997.352 595.555 989.054 589.893 979.729 L 590.313 973.703 C 589.528 970.671 588.982 966.759 588.442 963.613 L 587.692 963.119 C 588.594 961.63 590.99 952.208 591.912 949.522 C 597.346 933.708 605.542 925.305 617.358 914.177 L 625.413 909.018 C 628.384 908.176 647.372 903.354 648.286 902.943 C 643.304 887.401 640.51 887.991 637.374 869.125 L 636.857 865.573 L 636.216 864.688 z"/>
<path transform="translate(0,0)" fill="rgb(27,24,23)" d="M 656.458 902.826 C 661.4 903.923 666.347 904.452 671.386 903.948 L 672.581 902.263 C 673.701 905.432 672.675 904.319 675.122 906.135 C 681.957 909.341 687.253 911.721 693.613 915.744 C 706.91 930.126 713.277 936.209 717.96 956.465 L 718.099 977.885 C 711.184 981.1 704.843 983.762 699.102 988.942 C 696.174 992.677 693.381 996.321 690.243 999.89 C 688.702 1003.11 687.134 1006.3 685.768 1009.6 L 683.576 1021.71 C 665.651 1016.3 663.03 1011.84 641.497 1015.48 C 638.072 1016.06 633.385 1016.23 630.004 1014.72 C 627.6 1017.11 622.938 1022.8 619.485 1022.35 L 616.178 1018.54 C 612.93 1015.5 606.428 1008.38 602.72 1007.13 C 598.155 997.352 595.555 989.054 589.893 979.729 L 590.313 973.703 C 589.528 970.671 588.982 966.759 588.442 963.613 L 587.692 963.119 C 588.594 961.63 590.99 952.208 591.912 949.522 C 597.346 933.708 605.542 925.305 617.358 914.177 L 625.413 909.018 C 628.384 908.176 647.372 903.354 648.286 902.943 C 651.009 902.837 653.733 902.798 656.458 902.826 z"/>
<path transform="translate(0,0)" fill="rgb(90,75,70)" d="M 656.458 902.826 C 661.4 903.923 666.347 904.452 671.386 903.948 L 672.581 902.263 C 673.701 905.432 672.675 904.319 675.122 906.135 C 675.158 922.61 704.36 974.966 676.065 978.958 C 664.511 980.588 643.977 948.623 643.363 936.65 C 650.326 924.638 668.867 915.652 667.707 906.395 C 663.577 904.796 657.938 906.684 654.121 908.618 C 640.862 915.334 635.148 927.183 630.076 939.965 C 620.666 947.455 600.03 959.354 588.442 963.613 L 587.692 963.119 C 588.594 961.63 590.99 952.208 591.912 949.522 C 597.346 933.708 605.542 925.305 617.358 914.177 L 625.413 909.018 C 628.384 908.176 647.372 903.354 648.286 902.943 C 651.009 902.837 653.733 902.798 656.458 902.826 z"/>
<path transform="translate(0,0)" fill="rgb(90,75,70)" d="M 634.043 955.093 C 638.907 962.382 643.871 969.701 648.644 977.041 C 631.322 992.005 625.364 997.78 616.178 1018.54 C 612.93 1015.5 606.428 1008.38 602.72 1007.13 C 598.155 997.352 595.555 989.054 589.893 979.729 L 590.313 973.703 C 609.079 970.966 618.131 962.16 634.043 955.093 z"/>
<path transform="translate(0,0)" fill="rgb(90,75,70)" d="M 655.056 989.578 C 663.133 994.612 667.03 995.686 675.987 998.495 C 679.48 1003.36 680.93 1005.99 685.768 1009.6 L 683.576 1021.71 C 665.651 1016.3 663.03 1011.84 641.497 1015.48 C 638.072 1016.06 633.385 1016.23 630.004 1014.72 C 638.485 1005.6 646.023 998.175 655.056 989.578 z"/>
<path transform="translate(0,0)" fill="rgb(90,75,70)" d="M 690.243 999.89 C 687.529 997.189 685.715 996.041 686.737 992.14 C 689.897 989.706 694.965 989.537 699.102 988.942 C 696.174 992.677 693.381 996.321 690.243 999.89 z"/>
<path transform="translate(0,0)" fill="rgb(156,118,96)" d="M 636.216 864.688 C 637.918 851.308 644.2 838.929 653.996 829.656 C 680.974 804.544 728.522 805.793 748.395 838.751 C 749.573 840.704 755.634 849.496 757.137 850.779 C 755.782 854.451 759.415 869.54 760.064 875.848 C 756.824 876.119 749.742 875.566 747.536 873.329 C 743.491 876.4 732.234 877.891 727.255 877.725 C 720.006 884.652 708.019 891.59 703.205 897.844 C 701.692 900.815 700.693 902.331 698.822 905.111 C 696.326 909.308 695.452 911.206 693.613 915.744 C 687.253 911.721 681.957 909.341 675.122 906.135 C 672.675 904.319 673.701 905.432 672.581 902.263 L 671.386 903.948 C 666.347 904.452 661.4 903.923 656.458 902.826 C 653.733 902.798 651.009 902.837 648.286 902.943 C 643.304 887.401 640.51 887.991 637.374 869.125 L 636.857 865.573 L 636.216 864.688 z"/>
<path transform="translate(0,0)" fill="rgb(73,36,13)" d="M 656.458 902.826 C 647.27 870.801 663.102 839.814 693.946 827.365 C 706.371 822.35 716.671 822.238 729.945 821.914 C 698.109 841.865 675.53 862.428 672.581 902.263 L 671.386 903.948 C 666.347 904.452 661.4 903.923 656.458 902.826 z"/>
<path transform="translate(0,0)" fill="rgb(73,36,13)" d="M 729.691 824.8 C 740.956 843.869 745.004 851.633 747.536 873.329 C 743.491 876.4 732.234 877.891 727.255 877.725 C 727.393 875.036 729.311 865.448 729.774 861.592 C 731.434 847.754 730.822 838.374 729.691 824.8 z"/>
<path transform="translate(0,0)" fill="rgb(42,35,32)" d="M 757.137 850.779 C 765.285 845.764 772.775 841.087 782.221 839.082 C 815.088 832.106 839.945 848.598 851.47 878.749 L 844.414 887.632 C 837.053 894.587 836.318 901.579 834.302 911.238 C 826.869 915.113 819.656 920.783 812.885 925.824 C 807.31 911.394 803.061 898.066 790.122 888.714 L 784.08 884.234 C 778.186 879.232 767.686 876.706 760.064 875.848 C 759.415 869.54 755.782 854.451 757.137 850.779 z"/>
<path transform="translate(0,0)" fill="rgb(94,49,18)" d="M 744.339 941.161 C 753.163 940.779 773.666 962.256 794.175 955.45 C 792.355 965.835 791.763 972.844 792.024 983.492 C 783.539 985.22 781.218 987.331 774.868 993.448 C 757.754 975.28 741.381 972.997 718.099 977.885 L 717.96 956.465 C 729.15 954.484 738.49 951.716 744.339 941.161 z"/>
<path transform="translate(0,0)" fill="rgb(108,59,26)" d="M 790.122 888.714 C 803.061 898.066 807.31 911.394 812.885 925.824 C 806.576 931.491 805.224 935.956 800.799 940.783 C 791.298 932.838 781.29 934.662 770.159 936.584 C 764.391 934.022 760.545 931.84 755.928 927.569 C 753.707 920.752 753.332 918.784 752.423 911.705 C 761.83 905.812 784.329 894.608 790.122 888.714 z"/>
<path transform="translate(0,0)" fill="rgb(108,59,26)" d="M 698.822 905.111 C 705.863 907.25 712.626 905.336 719.973 904.911 C 732.114 915.426 732.854 923.908 742.648 935.908 C 743.671 937.162 743.354 936.627 743.834 938.089 C 743.161 938.942 742.489 939.795 741.816 940.647 C 742.654 941.745 742.148 941.484 743.136 941.73 L 742.562 940.302 C 743.155 940.589 743.747 940.875 744.339 941.161 C 738.49 951.716 729.15 954.484 717.96 956.465 C 713.277 936.209 706.91 930.126 693.613 915.744 C 695.452 911.206 696.326 909.308 698.822 905.111 z"/>
<path transform="translate(0,0)" fill="rgb(94,49,18)" d="M 747.536 873.329 C 749.742 875.566 756.824 876.119 760.064 875.848 C 767.686 876.706 778.186 879.232 784.08 884.234 C 767.877 891.882 762.005 896.939 748.491 909.057 C 743.706 903.303 742.45 901.798 736.166 897.256 C 717.346 894.968 716.606 898.017 703.205 897.844 C 708.019 891.59 720.006 884.652 727.255 877.725 C 732.234 877.891 743.491 876.4 747.536 873.329 z"/>
<path transform="translate(0,0)" fill="rgb(63,46,38)" d="M 619.485 1022.35 C 622.938 1022.8 627.6 1017.11 630.004 1014.72 C 633.385 1016.23 638.072 1016.06 641.497 1015.48 C 663.03 1011.84 665.651 1016.3 683.576 1021.71 C 692.173 1026.97 704.005 1037.2 707.466 1046.85 C 690.271 1069.57 718.601 1084.97 711.792 1100.1 C 702.578 1111.11 693.031 1120.71 680.579 1128.13 C 680.104 1132.6 679.397 1132.15 681.244 1135.18 C 685.781 1136.62 687.955 1135.55 692.459 1136.16 C 674.72 1137.28 631.968 1138.12 614.217 1137.27 L 613.241 1135.53 C 607.748 1125.52 596.416 1117.37 590.522 1106.14 C 582.796 1091.41 582.47 1075.59 587.153 1059.98 L 587.505 1058.84 L 586.784 1057.84 C 588.937 1055.54 602.231 1035.94 603.754 1033.06 C 609.085 1028.46 613.008 1025.14 619.485 1022.35 z"/>
<path transform="translate(0,0)" fill="rgb(27,24,23)" d="M 680.579 1128.13 C 678.322 1119.24 661.077 1084.86 682.952 1082.81 C 693.641 1081.8 704.524 1092.9 711.792 1100.1 C 702.578 1111.11 693.031 1120.71 680.579 1128.13 z"/>
<path transform="translate(0,0)" fill="rgb(27,24,23)" d="M 669.325 1023.98 C 676.639 1025.45 676.553 1052.98 694.405 1061.06 C 696.847 1064.77 696.115 1067.86 696.357 1072.93 C 684.36 1074.09 673.879 1074.36 664.814 1082.83 C 661.781 1097.78 658.749 1110.19 667.996 1123.86 C 670.392 1127.41 673.101 1130.88 672.57 1135.21 C 669.686 1136.53 665.498 1136.51 663.294 1134.06 C 659.067 1129.15 654.944 1124.83 650.074 1120.54 C 637.693 1109.64 637.608 1105.1 640.303 1090.17 C 651.847 1085.43 662.007 1080.77 668.778 1069.74 C 670.394 1048.56 665.47 1042.42 648.691 1030.55 C 655.897 1028.72 662.3 1026.42 669.325 1023.98 z"/>
<path transform="translate(0,0)" fill="rgb(27,24,23)" d="M 629.487 1031.88 C 649.592 1032 676.542 1061.53 639.121 1078.8 C 620.018 1078.98 615.506 1064.56 608.833 1049.68 C 616.848 1040.6 619.101 1037.9 629.487 1031.88 z"/>
<path transform="translate(0,0)" fill="rgb(27,24,23)" d="M 606.921 1067.54 C 615.005 1077.48 613.678 1081.95 627.804 1088.47 C 628.459 1093.54 630.424 1098.54 625.964 1101.51 C 618.827 1102.29 611.702 1103.17 604.589 1104.15 C 605.386 1091.88 606.455 1079.86 606.921 1067.54 z"/>
<path transform="translate(0,0)" fill="rgb(73,36,13)" d="M 876.891 1028.37 L 884.948 1027.49 C 880.632 1034.94 879.755 1037.25 882.443 1045.62 C 897.256 1058.2 903.31 1072.88 907.389 1091.21 C 905.759 1103.79 904.167 1112.16 898.507 1123.57 C 895.984 1128.66 893.743 1131.21 894.735 1136.99 L 877.034 1136.88 C 850.772 1137.94 809.127 1137.6 782.948 1136.82 C 786.879 1136.37 791.408 1136.45 795.42 1136.39 C 792.691 1128.4 787.604 1119.92 785.717 1111.92 C 779.17 1084.13 794.359 1050.75 821.325 1039.83 C 826.599 1037.7 831.75 1036.26 837.222 1034.8 L 848.125 1033.83 C 852.76 1034.16 863.452 1036.59 865.695 1036.18 L 866.259 1034.97 C 870.845 1033.5 873.854 1032.13 876.891 1028.37 z"/>
<path transform="translate(0,0)" fill="rgb(94,49,18)" d="M 795.42 1136.39 C 792.691 1128.4 787.604 1119.92 785.717 1111.92 C 779.17 1084.13 794.359 1050.75 821.325 1039.83 C 826.599 1037.7 831.75 1036.26 837.222 1034.8 C 842.35 1050.38 842.907 1056.05 843.8 1072.66 C 838.689 1071.19 833.819 1069.74 828.501 1069.32 C 814.333 1068.23 802.281 1077.5 797.156 1090.35 C 794.598 1096.76 795.139 1104.32 802.989 1106.69 C 811.034 1103.31 811.116 1074.9 830.795 1083.93 C 836.653 1086.61 842.271 1095.16 840.995 1101.34 C 836.68 1107.61 826.113 1105.04 818.938 1109.08 C 817.797 1110.81 816.693 1112.17 817.769 1114.71 C 819.73 1119.35 824.089 1133.94 827.652 1136.27 C 831.521 1136.45 835.085 1136.24 838.936 1136.08 C 837.55 1128.92 836.639 1127.01 833.782 1120.37 C 838.277 1118.36 843.647 1116.17 847.798 1113.65 C 850.788 1107.59 853.413 1102.1 856.084 1095.89 C 862.007 1099.37 865.693 1101.56 871.161 1105.68 C 865.562 1119.19 863.389 1124.89 854.097 1135.9 C 861.073 1135.95 870.362 1135.73 877.034 1136.88 C 850.772 1137.94 809.127 1137.6 782.948 1136.82 C 786.879 1136.37 791.408 1136.45 795.42 1136.39 z"/>
<path transform="translate(0,0)" fill="rgb(94,49,18)" d="M 876.891 1028.37 L 884.948 1027.49 C 880.632 1034.94 879.755 1037.25 882.443 1045.62 C 876.035 1043.07 870.517 1041.11 865.695 1036.18 L 866.259 1034.97 C 870.845 1033.5 873.854 1032.13 876.891 1028.37 z"/>
<path transform="translate(0,0)" fill="rgb(27,24,23)" d="M 834.302 911.238 C 852.859 905.833 869.633 905.08 887.134 914.606 C 902.023 922.736 913.025 936.504 917.669 952.82 C 920.721 963.456 920.6 973.886 920.842 984.852 C 913.844 988.333 910.977 990.338 904.914 995.447 C 899.509 1001.63 894.852 1007.5 893.899 1016.15 C 891.536 1020.21 888.913 1024.74 884.948 1027.49 L 876.891 1028.37 C 872.508 1026.52 858.061 1014.91 854.483 1011 C 841.898 997.233 844.242 983.254 845.123 966.271 C 831.065 970.54 826.56 972.804 814.026 980.487 C 815.678 984.2 817.925 988.428 819.764 992.12 C 810.666 989.918 807.446 988.976 799.623 984.458 C 806.309 958.995 818.63 963.966 834.352 952.647 C 838.494 946.143 840.228 929.646 832.636 924.853 C 816.364 924.557 802.633 952.831 796.203 956.297 L 794.444 954.776 C 796.125 948.245 797.416 946.448 800.799 940.783 C 805.224 935.956 806.576 931.491 812.885 925.824 C 819.656 920.783 826.869 915.113 834.302 911.238 z"/>
<path transform="translate(0,0)" fill="rgb(42,35,32)" d="M 866.452 1002.93 C 864.401 996.657 862.955 991.665 863.928 985.167 C 866.768 966.194 886.362 971.174 895.995 981.431 C 899.837 985.522 902.244 990.603 904.914 995.447 C 899.509 1001.63 894.852 1007.5 893.899 1016.15 C 881.868 1011.52 878.802 1014.8 866.452 1002.93 z"/>
<path transform="translate(0,0)" fill="rgb(42,35,32)" d="M 873.421 922.156 C 903.772 922.025 908.235 948.392 878.97 954.801 C 851.913 956.111 845.14 930.258 873.421 922.156 z"/>
<path transform="translate(0,0)" fill="rgb(156,118,96)" d="M 718.099 977.885 C 741.381 972.997 757.754 975.28 774.868 993.448 C 784.334 1008.04 791.165 1024.28 786.245 1041.55 C 775.857 1078.03 748.026 1083.49 717.114 1078.17 C 716.44 1065.86 714.157 1057.36 707.466 1046.85 C 704.005 1037.2 692.173 1026.97 683.576 1021.71 L 685.768 1009.6 C 687.134 1006.3 688.702 1003.11 690.243 999.89 C 693.381 996.321 696.174 992.677 699.102 988.942 C 704.843 983.762 711.184 981.1 718.099 977.885 z"/>
<path transform="translate(0,0)" fill="rgb(42,35,32)" d="M 737.432 1005.47 C 749.857 1001.93 762.788 1009.19 766.233 1021.64 C 769.677 1034.09 762.314 1046.97 749.835 1050.31 C 737.494 1053.62 724.795 1046.36 721.389 1034.04 C 717.983 1021.73 725.145 1008.97 737.432 1005.47 z"/>
<path transform="translate(0,0)" fill="rgb(27,24,23)" d="M 848.125 1033.83 C 844.072 1031.88 838.305 1029.52 836.036 1025.91 C 836.624 1016.64 861.745 1021.47 866.259 1034.97 L 865.695 1036.18 C 863.452 1036.59 852.76 1034.16 848.125 1033.83 z"/>
<path transform="translate(0,0)" fill="rgb(139,81,42)" d="M 1183.6 1136.02 L 1256.09 1136.11 C 1257.45 1163.12 1257.36 1190.18 1255.84 1217.18 C 1255.58 1222.53 1255.11 1237.21 1254.28 1241.88 C 1253.58 1251.24 1252.71 1260.58 1251.68 1269.91 C 1244.8 1272.16 1182.76 1271.03 1170.69 1271.04 L 952.25 1271.12 L 788.05 1271.2 C 763.894 1271.19 726.825 1272.24 703.848 1270.81 C 704.346 1261.11 703.34 1250.76 704.523 1241.07 L 703.827 1240.85 C 704.493 1231.52 703.984 1215.29 703.989 1205.55 L 703.91 1136.49 C 729.759 1136.41 757.531 1137.32 782.948 1136.82 C 809.127 1137.6 850.772 1137.94 877.034 1136.88 L 894.735 1136.99 C 961.903 1135.72 1031.97 1136.79 1099.4 1136.87 L 1149.07 1137.04 C 1157.52 1137.07 1173.4 1137.47 1181.36 1136.12 L 1183.6 1136.02 z"/>
<path transform="translate(0,0)" fill="rgb(73,36,13)" d="M 704.523 1241.07 L 1082.56 1241.09 L 1195.98 1241.07 C 1210.93 1241.07 1240.75 1240.21 1254.28 1241.88 C 1253.58 1251.24 1252.71 1260.58 1251.68 1269.91 C 1244.8 1272.16 1182.76 1271.03 1170.69 1271.04 L 952.25 1271.12 L 788.05 1271.2 C 763.894 1271.19 726.825 1272.24 703.848 1270.81 C 704.346 1261.11 703.34 1250.76 704.523 1241.07 z"/>
<path transform="translate(0,0)" fill="rgb(73,36,13)" d="M 704.883 1639.19 C 799.601 1639.34 893.908 1626.75 985.272 1601.77 L 985.426 1667.24 C 880.003 1687.83 811.474 1695.68 704.526 1697.42 C 704.279 1683.2 703.129 1651.87 704.883 1639.19 z"/>
<path transform="translate(0,0)" fill="rgb(108,59,26)" d="M 425.495 978.052 C 418.896 966.891 414.325 958.785 413.92 945.487 C 412.513 899.334 457.717 866.627 500.697 885.715 C 505.526 887.86 518.052 897.903 520.531 897.812 L 521.934 894.161 L 524.206 896.942 C 523.847 906.052 536.622 917.105 534.921 926.297 C 536.637 932.932 536.702 935.25 536.924 941.988 L 536.482 942.662 C 535.309 954.288 534.824 958.581 530.302 969.205 C 530.141 969.766 529.857 971.006 529.357 971.262 C 518.552 976.795 503.605 995.813 494.459 1000.26 C 471.463 974.645 455.963 977.047 425.495 978.052 z"/>
<path transform="translate(0,0)" fill="rgb(139,81,42)" d="M 536.482 942.662 C 536.222 936.268 533.072 935.41 534.921 926.297 C 536.637 932.932 536.702 935.25 536.924 941.988 L 536.482 942.662 z"/>
<path transform="translate(0,0)" fill="rgb(73,36,13)" d="M 472.178 899.14 C 498.992 897.106 509.728 922.969 484.268 937.561 C 457.094 935.476 444.328 912.327 472.178 899.14 z"/>
<path transform="translate(0,0)" fill="rgb(73,36,13)" d="M 570.912 842.498 C 600.843 840.369 614.683 842.941 636.216 864.688 L 636.857 865.573 L 637.374 869.125 C 640.51 887.991 643.304 887.401 648.286 902.943 C 647.372 903.354 628.384 908.176 625.413 909.018 L 617.358 914.177 C 605.542 925.305 597.346 933.708 591.912 949.522 C 590.99 952.208 588.594 961.63 587.692 963.119 C 581.62 963.093 576.893 962.41 570.884 961.645 L 567.144 960.74 C 554.656 956.59 547.033 950.177 536.924 941.988 C 536.702 935.25 536.637 932.932 534.921 926.297 C 536.622 917.105 523.847 906.052 524.206 896.942 L 521.934 894.161 L 522.224 891.163 C 527.307 868.012 542.516 853.288 563.955 844.64 L 570.912 842.498 z"/>
<path transform="translate(0,0)" fill="rgb(94,49,18)" d="M 570.884 961.645 C 572.673 946.018 561.506 926.475 574.533 906.591 C 578.7 900.138 587.58 887.594 595.278 885.866 C 612.868 881.918 614.619 902.701 617.358 914.177 C 605.542 925.305 597.346 933.708 591.912 949.522 C 590.99 952.208 588.594 961.63 587.692 963.119 C 581.62 963.093 576.893 962.41 570.884 961.645 z"/>
<path transform="translate(0,0)" fill="rgb(94,49,18)" d="M 522.224 891.163 C 527.307 868.012 542.516 853.288 563.955 844.64 C 565.024 853.767 573.642 864.697 578.166 873.194 C 574.066 882.299 563.039 899.024 556.93 907.3 C 546.292 902.727 535.543 897.246 525.454 891.053 C 524.377 891.09 523.301 891.127 522.224 891.163 z"/>
<path transform="translate(0,0)" fill="rgb(94,49,18)" d="M 570.912 842.498 C 600.843 840.369 614.683 842.941 636.216 864.688 L 636.857 865.573 C 630.668 868.296 625.06 872.375 619.646 876.351 C 606.963 871.184 595.941 867.746 582.848 863.63 C 577.328 856.255 574.889 850.803 570.912 842.498 z"/>
<path transform="translate(0,0)" fill="rgb(94,49,18)" d="M 524.206 896.942 C 531.517 903.392 547.696 913.857 556.647 918.033 C 557.779 934.949 559.641 945.549 567.144 960.74 C 554.656 956.59 547.033 950.177 536.924 941.988 C 536.702 935.25 536.637 932.932 534.921 926.297 C 536.622 917.105 523.847 906.052 524.206 896.942 z"/>
<path transform="translate(0,0)" fill="rgb(94,49,18)" d="M 637.374 869.125 C 640.51 887.991 643.304 887.401 648.286 902.943 C 647.372 903.354 628.384 908.176 625.413 909.018 C 622.474 887.425 624.473 886.717 637.374 869.125 z"/>
<path transform="translate(0,0)" fill="rgb(139,81,42)" d="M 312.691 1058.04 C 303.038 1041.47 297.217 1032.36 298.558 1012.43 C 299.496 996.095 307.065 980.848 319.512 970.224 C 341.271 951.761 376.683 950.648 398.597 969.347 C 404.232 974.155 407.999 978.727 412.747 984.45 C 383.739 1009.15 374.792 1027.56 388.596 1065.51 L 381.442 1070.64 C 380.293 1069.52 379.124 1068.42 377.937 1067.34 C 365.274 1055.89 344.353 1046.68 327.291 1052.82 C 323.632 1054.14 315.832 1058.59 312.691 1058.04 z"/>
<path transform="translate(0,0)" fill="rgb(42,35,32)" d="M 358.423 968.678 C 367.82 966.398 377.314 972.053 379.786 981.401 C 382.258 990.749 376.799 1000.36 367.503 1003.02 C 361.318 1004.79 354.659 1003.08 350.094 998.548 C 345.529 994.015 343.772 987.367 345.5 981.17 C 347.228 974.973 352.171 970.195 358.423 968.678 z"/>
<path transform="translate(0,0)" fill="rgb(255,255,255)" d="M 536.924 941.988 C 547.033 950.177 554.656 956.59 567.144 960.74 L 570.884 961.645 C 576.893 962.41 581.62 963.093 587.692 963.119 L 588.442 963.613 C 588.982 966.759 589.528 970.671 590.313 973.703 L 589.893 979.729 C 580.711 972.32 575.808 970.769 564.708 967.3 C 558.731 966.969 554.457 966.779 548.488 967.516 C 543.974 968.073 533.984 970.778 530.302 969.205 C 534.824 958.581 535.309 954.288 536.482 942.662 L 536.924 941.988 z"/>
</svg>