<?xml version="1.0" encoding="iso-8859-1"?>
<!-- Uploaded to: SVG Repo, www.svgrepo.com, Generator: SVG Repo Mixer Tools -->
<svg version="1.1" id="Layer_1" xmlns="http://www.w3.org/2000/svg" xmlns:xlink="http://www.w3.org/1999/xlink" 
	 viewBox="0 0 512 512" xml:space="preserve">
<path style="fill:#FF4B4B;" d="M495.432,25.119H110.63v367.699h384.802c4.722,0,8.551-3.829,8.551-8.551V33.67
	C503.983,28.948,500.155,25.119,495.432,25.119z"/>
<ellipse style="fill:none;stroke:#464646;stroke-width:16;stroke-linecap:round;stroke-linejoin:round;stroke-miterlimit:10;" cx="110.63" cy="72.15" rx="42.756" ry="12.827"/>
<path style="fill:#FF4B4B;" d="M8.017,72.15V439.85c0,25.974,45.941,47.031,102.614,47.031s102.614-21.057,102.614-47.031V72.15
	H8.017z"/>
<path style="fill:#C83741;" d="M93.528,72.15H8.017V439.85c0,23.298,36.999,42.587,85.511,46.326V72.15z"/>
<ellipse style="fill:#FF6969;" cx="110.63" cy="72.15" rx="102.614" ry="47.031"/>
<ellipse style="fill:#FF4B4B;" cx="110.63" cy="72.15" rx="42.756" ry="12.827"/>
<path style="fill:#FFDC78;" d="M495.432,25.119h-42.756v367.699h42.756c4.722,0,8.551-3.829,8.551-8.551V33.67
	C503.983,28.948,500.155,25.119,495.432,25.119z"/>
<path style="fill:#C83741;" d="M213.244,72.15v320.668h25.653V72.15c0-18.416-10.315-34.621-28.135-47.031H110.63
	C167.303,25.119,213.244,46.175,213.244,72.15z"/>
<path d="M495.432,17.102H110.63c-28.537,0-55.493,5.151-75.899,14.504C12.335,41.872,0,56.271,0,72.15V439.85
	c0,15.879,12.335,30.279,34.732,40.544c20.406,9.353,47.362,14.504,75.899,14.504s55.493-5.151,75.899-14.504
	c22.397-10.266,34.732-24.665,34.732-40.544v-39.015h274.171c9.136,0,16.568-7.432,16.568-16.568V33.67
	C512,24.534,504.568,17.102,495.432,17.102z M110.63,33.136c55.747,0,94.597,20.561,94.597,39.015s-38.85,39.015-94.597,39.015
	S16.033,90.604,16.033,72.15S54.883,33.136,110.63,33.136z M205.228,439.85c0,8.796-8.844,18.068-24.122,25.366
	c-3.932-8.745-11.398-14.641-17.934-18.968c-3.69-2.445-8.666-1.433-11.11,2.259c-2.445,3.692-1.433,8.666,2.259,11.11
	c6.18,4.092,9.89,7.633,11.821,11.421c-15.184,4.784-34.092,7.826-55.511,7.826c-9.243,0-18.008-0.576-26.222-1.603
	c-0.358-14.963-8.193-24.027-15.059-30.264c-3.277-2.977-8.347-2.734-11.324,0.543c-2.977,3.277-2.734,8.347,0.543,11.324
	c4.991,4.534,8.563,9.073,9.554,15.63c-32.006-7.02-52.089-21.377-52.089-34.645V101.355c5.1,4.161,11.355,7.974,18.698,11.34
	c9,4.125,19.277,7.43,30.399,9.839c-0.146,0.233-0.279,0.468-0.436,0.701c-2.476,3.671-1.506,8.654,2.165,11.129
	c1.375,0.927,2.933,1.37,4.474,1.37c2.576,0,5.106-1.239,6.654-3.536c1.494-2.217,2.708-4.48,3.672-6.842
	c9.33,1.206,19.051,1.842,28.971,1.842c19.161,0,37.597-2.332,53.827-6.689c-0.447,0.589-0.924,1.176-1.465,1.763
	c-3.007,3.249-2.81,8.321,0.439,11.329c1.542,1.427,3.495,2.132,5.443,2.132c2.156,0,4.307-0.865,5.886-2.572
	c5.24-5.663,8.236-12.12,8.941-19.232c0.95-0.406,1.904-0.811,2.827-1.235c7.343-3.366,13.597-7.179,18.698-11.34V439.85z
	 M221.261,72.15c0-15.108-11.172-28.872-31.543-39.015h107.454c-0.717,1.232-1.609,2.438-2.724,3.644
	c-3.007,3.249-2.81,8.321,0.439,11.329c1.542,1.427,3.495,2.132,5.443,2.132c2.156,0,4.307-0.865,5.886-2.572
	c4.061-4.388,6.769-9.256,8.114-14.533h85.455c-0.717,1.232-1.609,2.438-2.724,3.644c-3.007,3.249-2.81,8.321,0.439,11.329
	c1.542,1.427,3.495,2.132,5.443,2.132c2.156,0,4.307-0.865,5.886-2.572c4.061-4.388,6.769-9.256,8.114-14.533h27.715v351.666H416.96
	c-2.901-11.491-11.79-18.796-19.719-24.047c-3.692-2.444-8.665-1.432-11.11,2.26c-2.444,3.692-1.432,8.666,2.26,11.11
	c5.695,3.77,9.342,7.132,11.397,10.677h-85.44c-2.901-11.491-11.79-18.796-19.719-24.047c-3.692-2.444-8.666-1.432-11.11,2.26
	c-2.444,3.692-1.432,8.666,2.26,11.11c5.695,3.77,9.342,7.132,11.397,10.677h-75.914V72.15z M495.967,384.267
	c0,0.295-0.239,0.534-0.534,0.534h-34.739V33.136h34.739c0.295,0,0.534,0.239,0.534,0.534V384.267z"/>
<path d="M110.63,92.994c23.422,0,50.772-5.459,50.772-20.843s-27.351-20.843-50.772-20.843S59.858,56.766,59.858,72.15
	S87.209,92.994,110.63,92.994z M110.63,67.34c15.457,0,26.53,2.561,31.911,4.81c-5.381,2.249-16.453,4.81-31.911,4.81
	s-26.53-2.561-31.911-4.81C84.101,69.901,95.173,67.34,110.63,67.34z"/>
<path d="M361.625,356.013c1.554,1.489,3.551,2.229,5.545,2.229c2.109,0,4.215-0.827,5.789-2.47
	c3.063-3.196,2.956-8.271-0.242-11.335c-4.21-4.035-6.088-8.028-6.088-12.949c0-4.917,1.876-8.909,6.083-12.942
	c3.196-3.065,3.302-8.14,0.238-11.335c-3.065-3.196-8.139-3.302-11.335-0.238c-7.415,7.109-11.019,15.129-11.019,24.515
	C350.597,340.88,354.205,348.902,361.625,356.013z"/>
<path d="M392.826,303.554c1.52,0,3.056-0.432,4.418-1.333c9.635-6.379,20.694-15.788,20.694-32.061
	c0-15.047-9.43-23.828-16.522-29.122c-3.548-2.65-8.571-1.92-11.22,1.628c-2.649,3.548-1.92,8.571,1.628,11.22
	c7.159,5.346,10.081,10.06,10.081,16.275c0,7.014-3.788,12.255-13.511,18.693c-3.692,2.445-4.703,7.418-2.259,11.11
	C387.676,302.292,390.226,303.554,392.826,303.554z"/>
<path d="M365.35,236.63c1.477,1.18,3.244,1.753,4.998,1.753c2.354,0,4.686-1.031,6.269-3.014c2.763-3.46,2.199-8.504-1.261-11.267
	c-6.116-4.885-8.725-9.439-8.725-15.23c0-5.725,2.547-10.224,8.516-15.043c3.445-2.781,3.984-7.829,1.203-11.274
	c-2.781-3.445-7.829-3.983-11.274-1.203c-9.742,7.866-14.478,16.867-14.478,27.52C350.597,219.621,355.423,228.7,365.35,236.63z"/>
<path d="M396.392,178.507c1.656,0,3.325-0.511,4.76-1.57c7.205-5.326,16.786-14.16,16.786-29.299
	c0-9.975-4.102-18.446-12.542-25.897c-3.32-2.93-8.385-2.615-11.315,0.704c-2.93,3.319-2.615,8.385,0.704,11.315
	c4.992,4.406,7.121,8.556,7.121,13.877c0,6.253-2.979,11.006-10.284,16.406c-3.56,2.632-4.313,7.651-1.681,11.212
	C391.511,177.383,393.935,178.507,396.392,178.507z"/>
<path d="M369.555,117.234c1.392,0.962,2.98,1.424,4.551,1.424c2.544,0,5.045-1.208,6.601-3.459
	c2.517-3.642,1.607-8.636-2.035-11.153c-8.666-5.992-12.042-10.948-12.042-17.675c0-6.999,3.786-12.229,13.504-18.655
	c3.693-2.442,4.707-7.416,2.265-11.109c-2.441-3.693-7.416-4.706-11.109-2.265c-9.634,6.371-20.694,15.768-20.694,32.029
	C350.597,93.993,352.562,105.486,369.555,117.234z"/>
<path d="M264.017,331.488c0-4.917,1.876-8.909,6.083-12.942c3.196-3.065,3.302-8.14,0.238-11.335
	c-3.065-3.196-8.139-3.302-11.335-0.238c-7.416,7.109-11.02,15.129-11.02,24.515c0,9.391,3.608,17.413,11.029,24.525
	c1.554,1.489,3.551,2.229,5.545,2.229c2.109,0,4.215-0.827,5.789-2.47c3.063-3.197,2.956-8.271-0.242-11.335
	C265.895,340.402,264.017,336.409,264.017,331.488z"/>
<path d="M290.212,303.554c1.52,0,3.056-0.432,4.418-1.333c9.635-6.379,20.694-15.788,20.694-32.061
	c0-15.047-9.43-23.828-16.522-29.122c-3.548-2.65-8.571-1.92-11.22,1.628c-2.649,3.548-1.92,8.571,1.628,11.22
	c7.159,5.346,10.081,10.06,10.081,16.275c0,7.014-3.788,12.255-13.511,18.693c-3.692,2.445-4.703,7.418-2.259,11.11
	C285.062,302.292,287.613,303.554,290.212,303.554z"/>
<path d="M272.742,224.101c-6.116-4.885-8.725-9.439-8.725-15.23c0-5.725,2.547-10.224,8.516-15.043
	c3.445-2.781,3.984-7.829,1.203-11.274c-2.781-3.445-7.829-3.983-11.274-1.203c-9.742,7.866-14.478,16.867-14.478,27.52
	c0,10.749,4.826,19.828,14.753,27.757c1.477,1.18,3.244,1.753,4.998,1.753c2.354,0,4.686-1.031,6.269-3.014
	C276.766,231.909,276.201,226.864,272.742,224.101z"/>
<path d="M293.778,178.507c1.656,0,3.325-0.511,4.759-1.57c7.206-5.326,16.787-14.159,16.787-29.299
	c0-9.975-4.102-18.446-12.542-25.897c-3.319-2.93-8.385-2.615-11.315,0.704c-2.93,3.319-2.615,8.385,0.704,11.315
	c4.992,4.406,7.121,8.556,7.121,13.877c0,6.254-2.979,11.006-10.284,16.405c-3.56,2.632-4.313,7.651-1.681,11.212
	C288.897,177.383,291.322,178.507,293.778,178.507z"/>
<path d="M277.521,67.715c3.693-2.442,4.707-7.416,2.265-11.109c-2.441-3.693-7.415-4.706-11.109-2.265
	c-9.634,6.371-20.694,15.768-20.694,32.029c0,7.623,1.966,19.116,18.959,30.863c1.391,0.962,2.979,1.423,4.551,1.423
	c2.544,0,5.046-1.208,6.601-3.459c2.517-3.642,1.605-8.636-2.036-11.153c-8.665-5.991-12.042-10.947-12.042-17.674
	C264.017,79.372,267.803,74.141,277.521,67.715z"/>
<path d="M132.562,416.982c0-4.918,1.876-8.909,6.082-12.943c3.196-3.065,3.302-8.14,0.238-11.335
	c-3.065-3.196-8.139-3.302-11.335-0.238c-7.415,7.109-11.019,15.129-11.019,24.516c0,9.39,3.608,17.413,11.028,24.525
	c1.554,1.489,3.551,2.229,5.545,2.229c2.109,0,4.215-0.827,5.789-2.47c3.063-3.197,2.955-8.271-0.242-11.335
	C134.439,425.895,132.562,421.901,132.562,416.982z"/>
<path d="M167.346,326.53c-3.548-2.649-8.571-1.92-11.22,1.628c-2.649,3.548-1.92,8.571,1.628,11.22
	c7.161,5.346,10.081,10.06,10.081,16.275c0,7.014-3.788,12.255-13.511,18.693c-3.692,2.445-4.703,7.418-2.259,11.11
	c1.542,2.33,4.092,3.591,6.691,3.591c1.52,0,3.056-0.432,4.418-1.333c9.635-6.379,20.694-15.788,20.694-32.061
	C183.869,340.605,174.439,331.825,167.346,326.53z"/>
<path d="M141.287,309.594c-6.116-4.885-8.725-9.439-8.725-15.23c0-5.725,2.546-10.224,8.515-15.043
	c3.445-2.781,3.984-7.829,1.202-11.274c-2.781-3.445-7.829-3.983-11.273-1.203c-9.742,7.865-14.477,16.866-14.477,27.518
	c0,10.749,4.826,19.829,14.753,27.757c1.477,1.18,3.244,1.753,4.998,1.753c2.354,0,4.686-1.031,6.269-3.014
	C145.311,317.402,144.746,312.357,141.287,309.594z"/>
<path d="M171.325,207.234c-3.319-2.93-8.385-2.616-11.315,0.703c-2.931,3.319-2.616,8.385,0.703,11.315
	c4.991,4.407,7.121,8.558,7.121,13.877c0,6.253-2.979,11.006-10.284,16.405c-3.56,2.632-4.313,7.651-1.681,11.212
	c1.572,2.127,3.997,3.252,6.453,3.252c1.656,0,3.325-0.511,4.76-1.57c7.205-5.326,16.786-14.16,16.786-29.298
	C183.869,223.156,179.765,214.686,171.325,207.234z"/>
<path d="M146.065,153.208c3.693-2.442,4.707-7.416,2.265-11.109c-2.442-3.693-7.416-4.707-11.109-2.265
	c-9.635,6.372-20.694,15.769-20.694,32.029c0,7.623,1.966,19.116,18.959,30.863c1.391,0.962,2.979,1.423,4.551,1.423
	c2.544,0,5.046-1.208,6.601-3.459c2.517-3.642,1.605-8.636-2.036-11.153c-8.666-5.991-12.042-10.947-12.042-17.674
	C132.562,164.864,136.348,159.634,146.065,153.208z"/>
<path d="M47.051,416.982c0-5.415,1.418-9.695,4.597-13.879c2.679-3.525,1.993-8.554-1.532-11.233
	c-3.525-2.68-8.554-1.995-11.234,1.532c-5.293,6.964-7.866,14.677-7.866,23.581c0,8.907,2.575,16.623,7.873,23.589
	c1.578,2.074,3.968,3.164,6.387,3.164c1.692,0,3.397-0.533,4.847-1.636c3.524-2.68,4.208-7.71,1.529-11.234
	C48.469,426.681,47.051,422.399,47.051,416.982z"/>
<path d="M61.131,327.217c-3.168,3.093-3.229,8.168-0.136,11.337c5.266,5.395,7.414,10.348,7.414,17.099
	c0,8.719-3.932,14.078-9.838,19.443c-3.277,2.977-3.52,8.048-0.543,11.324c1.582,1.741,3.755,2.626,5.937,2.626
	c1.923,0,3.852-0.688,5.388-2.083c7.025-6.382,15.09-15.71,15.09-31.311c0-14.37-6.835-23.034-11.975-28.299
	C69.374,324.185,64.299,324.124,61.131,327.217z"/>
<path d="M47.051,294.365c0-6.249,1.888-11.006,6.313-15.908c2.967-3.287,2.709-8.356-0.578-11.323
	c-3.287-2.967-8.356-2.708-11.323,0.578c-7.029,7.785-10.445,16.504-10.445,26.652c0,10.244,3.484,19.042,10.649,26.897
	c1.582,1.734,3.749,2.613,5.924,2.613c1.929,0,3.864-0.693,5.401-2.095c3.271-2.984,3.503-8.055,0.518-11.325
	C48.982,305.492,47.051,300.68,47.051,294.365z"/>
<path d="M64.157,207.061c-3.414,2.819-3.897,7.871-1.08,11.285c3.688,4.467,5.332,9.026,5.332,14.784
	c0,6.791-2.189,11.78-7.556,17.224c-3.108,3.152-3.073,8.228,0.08,11.337c1.562,1.54,3.595,2.308,5.628,2.308
	c2.07,0,4.141-0.797,5.709-2.388c5.225-5.298,12.173-14.017,12.173-28.481c0-9.48-2.944-17.654-8.999-24.991
	C72.624,204.725,67.571,204.242,64.157,207.061z"/>
<path d="M55.848,190.315c-5.28-5.009-8.797-10.063-8.797-18.452c0-8.701,3.93-14.051,9.833-19.406
	c3.278-2.975,3.525-8.046,0.549-11.324c-2.975-3.278-8.044-3.526-11.324-0.549c-7.026,6.376-15.092,15.692-15.092,31.279
	c0,15.067,7.373,23.993,13.797,30.085c1.551,1.471,3.535,2.2,5.515,2.2c2.123,0,4.242-0.838,5.818-2.5
	C59.193,198.437,59.06,193.363,55.848,190.315z"/>
</svg>